<?xml version="1.0" encoding="UTF-8"?>
<svg xmlns="http://www.w3.org/2000/svg" width="247" height="38" viewBox="0 0 247 38" fill="none">
  <mask id="path-1-outside-1_702_777" maskUnits="userSpaceOnUse" x="48.5607" y="7.56354" width="199" height="23" fill="black">
    <rect fill="white" x="48.5607" y="7.56354" width="199" height="23"></rect>
    <path d="M49.5607 28.7142L58.017 8.56354H58.1776L66.6071 28.7142H63.6367L57.3212 12.6311L58.5001 12.5001L52.1029 28.7142H49.5607ZM54.5114 21.3818H61.71L62.5663 23.6297H53.7621L54.5114 21.3818Z"></path>
    <path d="M69.1379 17.1055H70.6954V27.221H76.5881V28.7142H69.1379V17.1055Z"></path>
    <path d="M78.8746 21.8635H83.8788V24.0579H78.8746V21.8635Z"></path>
    <path d="M88.3668 9.36635H90.9626V28.7142H88.3668V9.36635Z"></path>
    <path d="M104.591 17.1055V28.7142H103.05V23.6244H96.9647V28.7142H95.4072V17.1055H96.9647V22.1472H103.05V17.1055H104.591Z"></path>
    <path d="M113.941 19.1768C113.545 18.9734 113.111 18.7968 112.64 18.6469C112.169 18.4971 111.709 18.4221 111.259 18.4221C110.638 18.4221 110.141 18.5666 109.766 18.8556C109.402 19.1447 109.22 19.53 109.22 20.0117C109.22 20.3757 109.338 20.6861 109.573 20.943C109.809 21.1892 110.119 21.4033 110.505 21.5852C110.89 21.7672 111.291 21.9385 111.709 22.099C112.073 22.2382 112.431 22.3934 112.785 22.5647C113.138 22.7359 113.454 22.95 113.732 23.2069C114.021 23.4638 114.246 23.7796 114.406 24.1542C114.578 24.5289 114.663 24.9945 114.663 25.5511C114.663 26.1613 114.508 26.7179 114.198 27.221C113.898 27.7241 113.464 28.1202 112.897 28.4092C112.33 28.6982 111.655 28.8427 110.874 28.8427C110.36 28.8427 109.868 28.7838 109.397 28.6661C108.936 28.5483 108.508 28.3985 108.112 28.2165C107.716 28.0238 107.363 27.8258 107.052 27.6224L107.743 26.4021C108 26.5841 108.294 26.7607 108.626 26.932C108.958 27.0926 109.306 27.2264 109.67 27.3334C110.034 27.4297 110.387 27.4779 110.729 27.4779C111.093 27.4779 111.452 27.4137 111.805 27.2852C112.169 27.1461 112.469 26.9373 112.704 26.659C112.94 26.3807 113.058 26.0114 113.058 25.5511C113.058 25.1551 112.95 24.8286 112.736 24.5717C112.533 24.3041 112.26 24.0793 111.918 23.8973C111.575 23.7047 111.211 23.5334 110.826 23.3835C110.462 23.2444 110.092 23.0945 109.718 22.934C109.343 22.7627 108.995 22.5593 108.674 22.3238C108.353 22.0776 108.096 21.7779 107.903 21.4247C107.711 21.0714 107.614 20.6433 107.614 20.1402C107.614 19.53 107.759 19.0002 108.048 18.5506C108.348 18.0903 108.754 17.7317 109.268 17.4748C109.782 17.2072 110.371 17.0627 111.034 17.0413C111.784 17.0413 112.442 17.1323 113.009 17.3142C113.587 17.4962 114.096 17.721 114.535 17.9886L113.941 19.1768Z"></path>
    <path d="M116.125 28.7142L121.199 16.6238H121.295L126.353 28.7142H124.57L120.781 19.0644L121.295 18.9359L117.65 28.7142H116.125ZM119.095 24.3148H123.414L123.928 25.6635H118.646L119.095 24.3148Z"></path>
    <path d="M138.59 29.0835L129.615 19.9796L130.064 20.092L130.097 28.7142H128.539V16.7523H128.619L137.499 25.8883L137.129 25.808L137.097 17.1055H138.639V29.0835H138.59Z"></path>
    <path d="M151.557 9.36635H154.153V28.7142H151.557V9.36635Z"></path>
    <path d="M170.602 29.1451L160.131 18.5238L160.656 18.6549L160.693 28.7142H158.876V14.7586H158.97L169.329 25.4173L168.898 25.3237L168.86 15.1707H170.659V29.1451H170.602Z"></path>
    <path d="M181.559 17.5872C181.097 17.3499 180.591 17.1439 180.042 16.969C179.493 16.7942 178.956 16.7068 178.431 16.7068C177.707 16.7068 177.126 16.8754 176.689 17.2126C176.264 17.5497 176.052 17.9993 176.052 18.5613C176.052 18.9859 176.189 19.348 176.464 19.6478C176.739 19.935 177.101 20.1848 177.551 20.3971C178 20.6094 178.468 20.8092 178.955 20.9965C179.38 21.1588 179.798 21.3399 180.211 21.5397C180.623 21.7395 180.991 21.9893 181.316 22.289C181.653 22.5887 181.915 22.9572 182.103 23.3942C182.302 23.8313 182.402 24.3746 182.402 25.024C182.402 25.7358 182.221 26.3852 181.859 26.9721C181.509 27.5591 181.004 28.0211 180.342 28.3583C179.68 28.6955 178.893 28.8641 177.981 28.8641C177.382 28.8641 176.808 28.7954 176.258 28.658C175.721 28.5207 175.222 28.3458 174.759 28.1335C174.297 27.9088 173.885 27.6777 173.523 27.4404L174.329 26.0168C174.628 26.2291 174.972 26.4351 175.359 26.6349C175.746 26.8223 176.152 26.9784 176.576 27.1033C177.001 27.2157 177.413 27.2718 177.813 27.2718C178.237 27.2718 178.656 27.1969 179.068 27.0471C179.493 26.8847 179.842 26.6412 180.117 26.3165C180.392 25.9918 180.529 25.561 180.529 25.024C180.529 24.5619 180.404 24.181 180.154 23.8813C179.917 23.5691 179.599 23.3068 179.199 23.0945C178.799 22.8697 178.375 22.6699 177.925 22.4951C177.501 22.3327 177.07 22.1579 176.633 21.9706C176.196 21.7708 175.79 21.5335 175.415 21.2587C175.04 20.9715 174.741 20.6218 174.516 20.2097C174.291 19.7976 174.179 19.2981 174.179 18.7111C174.179 17.9993 174.347 17.3811 174.685 16.8566C175.034 16.3196 175.509 15.9013 176.108 15.6016C176.708 15.2894 177.394 15.1208 178.169 15.0958C179.043 15.0958 179.811 15.2019 180.473 15.4142C181.147 15.6265 181.74 15.8888 182.252 16.201L181.559 17.5872Z"></path>
    <path d="M184.372 15.1707H193.363V16.9128H189.729V28.7142H187.912V16.9128H184.372V15.1707Z"></path>
    <path d="M196.249 15.1707H198.066V28.7142H196.249V15.1707Z"></path>
    <path d="M200.964 15.1707H209.956V16.9128H206.321V28.7142H204.504V16.9128H200.964V15.1707Z"></path>
    <path d="M214.471 23.9187C214.471 24.5307 214.615 25.0802 214.902 25.5672C215.202 26.0418 215.595 26.4164 216.082 26.6911C216.569 26.9659 217.119 27.1033 217.731 27.1033C218.367 27.1033 218.936 26.9659 219.435 26.6911C219.935 26.4164 220.328 26.0418 220.615 25.5672C220.903 25.0802 221.046 24.5307 221.046 23.9187V15.1707H222.826V23.9749C222.826 24.9615 222.595 25.8232 222.133 26.56C221.683 27.2968 221.071 27.865 220.297 28.2647C219.535 28.6643 218.68 28.8641 217.731 28.8641C216.781 28.8641 215.926 28.6643 215.164 28.2647C214.402 27.865 213.797 27.2968 213.347 26.56C212.898 25.8232 212.673 24.9615 212.673 23.9749V15.1707H214.471V23.9187Z"></path>
    <path d="M225.55 15.1707H234.542V16.9128H230.908V28.7142H229.091V16.9128H225.55V15.1707Z"></path>
    <path d="M237.428 15.1707H246.232V16.9128H239.245V21.034H245.483V22.7761H239.245V26.9721H246.494V28.7142H237.428V15.1707Z"></path>
  </mask>
  <path d="M49.5607 28.7142L58.017 8.56354H58.1776L66.6071 28.7142H63.6367L57.3212 12.6311L58.5001 12.5001L52.1029 28.7142H49.5607ZM54.5114 21.3818H61.71L62.5663 23.6297H53.7621L54.5114 21.3818Z" fill="white"></path>
  <path d="M69.1379 17.1055H70.6954V27.221H76.5881V28.7142H69.1379V17.1055Z" fill="white"></path>
  <path d="M78.8746 21.8635H83.8788V24.0579H78.8746V21.8635Z" fill="white"></path>
  <path d="M88.3668 9.36635H90.9626V28.7142H88.3668V9.36635Z" fill="white"></path>
  <path d="M104.591 17.1055V28.7142H103.05V23.6244H96.9647V28.7142H95.4072V17.1055H96.9647V22.1472H103.05V17.1055H104.591Z" fill="white"></path>
  <path d="M113.941 19.1768C113.545 18.9734 113.111 18.7968 112.64 18.6469C112.169 18.4971 111.709 18.4221 111.259 18.4221C110.638 18.4221 110.141 18.5666 109.766 18.8556C109.402 19.1447 109.22 19.53 109.22 20.0117C109.22 20.3757 109.338 20.6861 109.573 20.943C109.809 21.1892 110.119 21.4033 110.505 21.5852C110.89 21.7672 111.291 21.9385 111.709 22.099C112.073 22.2382 112.431 22.3934 112.785 22.5647C113.138 22.7359 113.454 22.95 113.732 23.2069C114.021 23.4638 114.246 23.7796 114.406 24.1542C114.578 24.5289 114.663 24.9945 114.663 25.5511C114.663 26.1613 114.508 26.7179 114.198 27.221C113.898 27.7241 113.464 28.1202 112.897 28.4092C112.33 28.6982 111.655 28.8427 110.874 28.8427C110.36 28.8427 109.868 28.7838 109.397 28.6661C108.936 28.5483 108.508 28.3985 108.112 28.2165C107.716 28.0238 107.363 27.8258 107.052 27.6224L107.743 26.4021C108 26.5841 108.294 26.7607 108.626 26.932C108.958 27.0926 109.306 27.2264 109.67 27.3334C110.034 27.4297 110.387 27.4779 110.729 27.4779C111.093 27.4779 111.452 27.4137 111.805 27.2852C112.169 27.1461 112.469 26.9373 112.704 26.659C112.94 26.3807 113.058 26.0114 113.058 25.5511C113.058 25.1551 112.95 24.8286 112.736 24.5717C112.533 24.3041 112.26 24.0793 111.918 23.8973C111.575 23.7047 111.211 23.5334 110.826 23.3835C110.462 23.2444 110.092 23.0945 109.718 22.934C109.343 22.7627 108.995 22.5593 108.674 22.3238C108.353 22.0776 108.096 21.7779 107.903 21.4247C107.711 21.0714 107.614 20.6433 107.614 20.1402C107.614 19.53 107.759 19.0002 108.048 18.5506C108.348 18.0903 108.754 17.7317 109.268 17.4748C109.782 17.2072 110.371 17.0627 111.034 17.0413C111.784 17.0413 112.442 17.1323 113.009 17.3142C113.587 17.4962 114.096 17.721 114.535 17.9886L113.941 19.1768Z" fill="white"></path>
  <path d="M116.125 28.7142L121.199 16.6238H121.295L126.353 28.7142H124.57L120.781 19.0644L121.295 18.9359L117.65 28.7142H116.125ZM119.095 24.3148H123.414L123.928 25.6635H118.646L119.095 24.3148Z" fill="white"></path>
  <path d="M138.59 29.0835L129.615 19.9796L130.064 20.092L130.097 28.7142H128.539V16.7523H128.619L137.499 25.8883L137.129 25.808L137.097 17.1055H138.639V29.0835H138.59Z" fill="white"></path>
  <path d="M151.557 9.36635H154.153V28.7142H151.557V9.36635Z" fill="white"></path>
  <path d="M170.602 29.1451L160.131 18.5238L160.656 18.6549L160.693 28.7142H158.876V14.7586H158.97L169.329 25.4173L168.898 25.3237L168.86 15.1707H170.659V29.1451H170.602Z" fill="white"></path>
  <path d="M181.559 17.5872C181.097 17.3499 180.591 17.1439 180.042 16.969C179.493 16.7942 178.956 16.7068 178.431 16.7068C177.707 16.7068 177.126 16.8754 176.689 17.2126C176.264 17.5497 176.052 17.9993 176.052 18.5613C176.052 18.9859 176.189 19.348 176.464 19.6478C176.739 19.935 177.101 20.1848 177.551 20.3971C178 20.6094 178.468 20.8092 178.955 20.9965C179.38 21.1588 179.798 21.3399 180.211 21.5397C180.623 21.7395 180.991 21.9893 181.316 22.289C181.653 22.5887 181.915 22.9572 182.103 23.3942C182.302 23.8313 182.402 24.3746 182.402 25.024C182.402 25.7358 182.221 26.3852 181.859 26.9721C181.509 27.5591 181.004 28.0211 180.342 28.3583C179.68 28.6955 178.893 28.8641 177.981 28.8641C177.382 28.8641 176.808 28.7954 176.258 28.658C175.721 28.5207 175.222 28.3458 174.759 28.1335C174.297 27.9088 173.885 27.6777 173.523 27.4404L174.329 26.0168C174.628 26.2291 174.972 26.4351 175.359 26.6349C175.746 26.8223 176.152 26.9784 176.576 27.1033C177.001 27.2157 177.413 27.2718 177.813 27.2718C178.237 27.2718 178.656 27.1969 179.068 27.0471C179.493 26.8847 179.842 26.6412 180.117 26.3165C180.392 25.9918 180.529 25.561 180.529 25.024C180.529 24.5619 180.404 24.181 180.154 23.8813C179.917 23.5691 179.599 23.3068 179.199 23.0945C178.799 22.8697 178.375 22.6699 177.925 22.4951C177.501 22.3327 177.07 22.1579 176.633 21.9706C176.196 21.7708 175.79 21.5335 175.415 21.2587C175.04 20.9715 174.741 20.6218 174.516 20.2097C174.291 19.7976 174.179 19.2981 174.179 18.7111C174.179 17.9993 174.347 17.3811 174.685 16.8566C175.034 16.3196 175.509 15.9013 176.108 15.6016C176.708 15.2894 177.394 15.1208 178.169 15.0958C179.043 15.0958 179.811 15.2019 180.473 15.4142C181.147 15.6265 181.74 15.8888 182.252 16.201L181.559 17.5872Z" fill="white"></path>
  <path d="M184.372 15.1707H193.363V16.9128H189.729V28.7142H187.912V16.9128H184.372V15.1707Z" fill="white"></path>
  <path d="M196.249 15.1707H198.066V28.7142H196.249V15.1707Z" fill="white"></path>
  <path d="M200.964 15.1707H209.956V16.9128H206.321V28.7142H204.504V16.9128H200.964V15.1707Z" fill="white"></path>
  <path d="M214.471 23.9187C214.471 24.5307 214.615 25.0802 214.902 25.5672C215.202 26.0418 215.595 26.4164 216.082 26.6911C216.569 26.9659 217.119 27.1033 217.731 27.1033C218.367 27.1033 218.936 26.9659 219.435 26.6911C219.935 26.4164 220.328 26.0418 220.615 25.5672C220.903 25.0802 221.046 24.5307 221.046 23.9187V15.1707H222.826V23.9749C222.826 24.9615 222.595 25.8232 222.133 26.56C221.683 27.2968 221.071 27.865 220.297 28.2647C219.535 28.6643 218.68 28.8641 217.731 28.8641C216.781 28.8641 215.926 28.6643 215.164 28.2647C214.402 27.865 213.797 27.2968 213.347 26.56C212.898 25.8232 212.673 24.9615 212.673 23.9749V15.1707H214.471V23.9187Z" fill="white"></path>
  <path d="M225.55 15.1707H234.542V16.9128H230.908V28.7142H229.091V16.9128H225.55V15.1707Z" fill="white"></path>
  <path d="M237.428 15.1707H246.232V16.9128H239.245V21.034H245.483V22.7761H239.245V26.9721H246.494V28.7142H237.428V15.1707Z" fill="white"></path>
  <path d="M49.5607 28.7142L58.017 8.56354H58.1776L66.6071 28.7142H63.6367L57.3212 12.6311L58.5001 12.5001L52.1029 28.7142H49.5607ZM54.5114 21.3818H61.71L62.5663 23.6297H53.7621L54.5114 21.3818Z" stroke="white" mask="url(#path-1-outside-1_702_777)"></path>
  <path d="M69.1379 17.1055H70.6954V27.221H76.5881V28.7142H69.1379V17.1055Z" stroke="white" mask="url(#path-1-outside-1_702_777)"></path>
  <path d="M78.8746 21.8635H83.8788V24.0579H78.8746V21.8635Z" stroke="white" mask="url(#path-1-outside-1_702_777)"></path>
  <path d="M88.3668 9.36635H90.9626V28.7142H88.3668V9.36635Z" stroke="white" mask="url(#path-1-outside-1_702_777)"></path>
  <path d="M104.591 17.1055V28.7142H103.05V23.6244H96.9647V28.7142H95.4072V17.1055H96.9647V22.1472H103.05V17.1055H104.591Z" stroke="white" mask="url(#path-1-outside-1_702_777)"></path>
  <path d="M113.941 19.1768C113.545 18.9734 113.111 18.7968 112.64 18.6469C112.169 18.4971 111.709 18.4221 111.259 18.4221C110.638 18.4221 110.141 18.5666 109.766 18.8556C109.402 19.1447 109.22 19.53 109.22 20.0117C109.22 20.3757 109.338 20.6861 109.573 20.943C109.809 21.1892 110.119 21.4033 110.505 21.5852C110.89 21.7672 111.291 21.9385 111.709 22.099C112.073 22.2382 112.431 22.3934 112.785 22.5647C113.138 22.7359 113.454 22.95 113.732 23.2069C114.021 23.4638 114.246 23.7796 114.406 24.1542C114.578 24.5289 114.663 24.9945 114.663 25.5511C114.663 26.1613 114.508 26.7179 114.198 27.221C113.898 27.7241 113.464 28.1202 112.897 28.4092C112.33 28.6982 111.655 28.8427 110.874 28.8427C110.36 28.8427 109.868 28.7838 109.397 28.6661C108.936 28.5483 108.508 28.3985 108.112 28.2165C107.716 28.0238 107.363 27.8258 107.052 27.6224L107.743 26.4021C108 26.5841 108.294 26.7607 108.626 26.932C108.958 27.0926 109.306 27.2264 109.67 27.3334C110.034 27.4297 110.387 27.4779 110.729 27.4779C111.093 27.4779 111.452 27.4137 111.805 27.2852C112.169 27.1461 112.469 26.9373 112.704 26.659C112.94 26.3807 113.058 26.0114 113.058 25.5511C113.058 25.1551 112.95 24.8286 112.736 24.5717C112.533 24.3041 112.26 24.0793 111.918 23.8973C111.575 23.7047 111.211 23.5334 110.826 23.3835C110.462 23.2444 110.092 23.0945 109.718 22.934C109.343 22.7627 108.995 22.5593 108.674 22.3238C108.353 22.0776 108.096 21.7779 107.903 21.4247C107.711 21.0714 107.614 20.6433 107.614 20.1402C107.614 19.53 107.759 19.0002 108.048 18.5506C108.348 18.0903 108.754 17.7317 109.268 17.4748C109.782 17.2072 110.371 17.0627 111.034 17.0413C111.784 17.0413 112.442 17.1323 113.009 17.3142C113.587 17.4962 114.096 17.721 114.535 17.9886L113.941 19.1768Z" stroke="white" mask="url(#path-1-outside-1_702_777)"></path>
  <path d="M116.125 28.7142L121.199 16.6238H121.295L126.353 28.7142H124.57L120.781 19.0644L121.295 18.9359L117.65 28.7142H116.125ZM119.095 24.3148H123.414L123.928 25.6635H118.646L119.095 24.3148Z" stroke="white" mask="url(#path-1-outside-1_702_777)"></path>
  <path d="M138.59 29.0835L129.615 19.9796L130.064 20.092L130.097 28.7142H128.539V16.7523H128.619L137.499 25.8883L137.129 25.808L137.097 17.1055H138.639V29.0835H138.59Z" stroke="white" mask="url(#path-1-outside-1_702_777)"></path>
  <path d="M151.557 9.36635H154.153V28.7142H151.557V9.36635Z" stroke="white" mask="url(#path-1-outside-1_702_777)"></path>
  <path d="M170.602 29.1451L160.131 18.5238L160.656 18.6549L160.693 28.7142H158.876V14.7586H158.97L169.329 25.4173L168.898 25.3237L168.86 15.1707H170.659V29.1451H170.602Z" stroke="white" mask="url(#path-1-outside-1_702_777)"></path>
  <path d="M181.559 17.5872C181.097 17.3499 180.591 17.1439 180.042 16.969C179.493 16.7942 178.956 16.7068 178.431 16.7068C177.707 16.7068 177.126 16.8754 176.689 17.2126C176.264 17.5497 176.052 17.9993 176.052 18.5613C176.052 18.9859 176.189 19.348 176.464 19.6478C176.739 19.935 177.101 20.1848 177.551 20.3971C178 20.6094 178.468 20.8092 178.955 20.9965C179.38 21.1588 179.798 21.3399 180.211 21.5397C180.623 21.7395 180.991 21.9893 181.316 22.289C181.653 22.5887 181.915 22.9572 182.103 23.3942C182.302 23.8313 182.402 24.3746 182.402 25.024C182.402 25.7358 182.221 26.3852 181.859 26.9721C181.509 27.5591 181.004 28.0211 180.342 28.3583C179.68 28.6955 178.893 28.8641 177.981 28.8641C177.382 28.8641 176.808 28.7954 176.258 28.658C175.721 28.5207 175.222 28.3458 174.759 28.1335C174.297 27.9088 173.885 27.6777 173.523 27.4404L174.329 26.0168C174.628 26.2291 174.972 26.4351 175.359 26.6349C175.746 26.8223 176.152 26.9784 176.576 27.1033C177.001 27.2157 177.413 27.2718 177.813 27.2718C178.237 27.2718 178.656 27.1969 179.068 27.0471C179.493 26.8847 179.842 26.6412 180.117 26.3165C180.392 25.9918 180.529 25.561 180.529 25.024C180.529 24.5619 180.404 24.181 180.154 23.8813C179.917 23.5691 179.599 23.3068 179.199 23.0945C178.799 22.8697 178.375 22.6699 177.925 22.4951C177.501 22.3327 177.07 22.1579 176.633 21.9706C176.196 21.7708 175.79 21.5335 175.415 21.2587C175.04 20.9715 174.741 20.6218 174.516 20.2097C174.291 19.7976 174.179 19.2981 174.179 18.7111C174.179 17.9993 174.347 17.3811 174.685 16.8566C175.034 16.3196 175.509 15.9013 176.108 15.6016C176.708 15.2894 177.394 15.1208 178.169 15.0958C179.043 15.0958 179.811 15.2019 180.473 15.4142C181.147 15.6265 181.74 15.8888 182.252 16.201L181.559 17.5872Z" stroke="white" mask="url(#path-1-outside-1_702_777)"></path>
  <path d="M184.372 15.1707H193.363V16.9128H189.729V28.7142H187.912V16.9128H184.372V15.1707Z" stroke="white" mask="url(#path-1-outside-1_702_777)"></path>
  <path d="M196.249 15.1707H198.066V28.7142H196.249V15.1707Z" stroke="white" mask="url(#path-1-outside-1_702_777)"></path>
  <path d="M200.964 15.1707H209.956V16.9128H206.321V28.7142H204.504V16.9128H200.964V15.1707Z" stroke="white" mask="url(#path-1-outside-1_702_777)"></path>
  <path d="M214.471 23.9187C214.471 24.5307 214.615 25.0802 214.902 25.5672C215.202 26.0418 215.595 26.4164 216.082 26.6911C216.569 26.9659 217.119 27.1033 217.731 27.1033C218.367 27.1033 218.936 26.9659 219.435 26.6911C219.935 26.4164 220.328 26.0418 220.615 25.5672C220.903 25.0802 221.046 24.5307 221.046 23.9187V15.1707H222.826V23.9749C222.826 24.9615 222.595 25.8232 222.133 26.56C221.683 27.2968 221.071 27.865 220.297 28.2647C219.535 28.6643 218.68 28.8641 217.731 28.8641C216.781 28.8641 215.926 28.6643 215.164 28.2647C214.402 27.865 213.797 27.2968 213.347 26.56C212.898 25.8232 212.673 24.9615 212.673 23.9749V15.1707H214.471V23.9187Z" stroke="white" mask="url(#path-1-outside-1_702_777)"></path>
  <path d="M225.55 15.1707H234.542V16.9128H230.908V28.7142H229.091V16.9128H225.55V15.1707Z" stroke="white" mask="url(#path-1-outside-1_702_777)"></path>
  <path d="M237.428 15.1707H246.232V16.9128H239.245V21.034H245.483V22.7761H239.245V26.9721H246.494V28.7142H237.428V15.1707Z" stroke="white" mask="url(#path-1-outside-1_702_777)"></path>
  <path d="M37.925 18.5975C37.883 18.0965 37.822 17.5985 37.7452 17.1047C37.0837 12.8364 35.2821 8.94022 32.5506 5.61013C31.6992 4.57201 30.8288 3.54837 30.1021 2.41614C30.0034 2.26121 29.9512 2.52183 29.9367 2.58264C29.8584 2.89248 29.8468 3.2559 29.8381 3.57153C29.825 3.99576 29.8236 4.42288 29.8598 4.8471C29.8801 5.07442 29.8642 5.41322 29.9889 5.60723C30.0237 5.66225 30.0615 5.71582 30.0977 5.77084C30.1006 5.78966 30.1021 5.80704 30.1064 5.82586C30.134 5.96341 30.1703 6.09806 30.2007 6.23416L30.3835 7.05075L30.5576 7.87025C30.7809 8.96338 30.9855 10.0623 31.161 11.1656L31.2901 11.9938L31.4119 12.8234C31.4468 13.1014 31.4888 13.3779 31.5265 13.6559L31.631 14.4899C31.7108 15.1356 31.7804 15.7843 31.8471 16.4329C31.7528 16.2534 31.6527 16.0753 31.5469 15.9016C31.1494 15.2529 30.6562 14.6738 30.2065 14.0628C30.1383 13.9701 30.0716 13.876 30.0049 13.7804C29.9266 13.6472 29.8511 13.5111 29.7815 13.3736C29.6074 13.0304 29.474 12.6757 29.3884 12.2993C29.3594 12.169 29.3304 12.0401 29.3028 11.9098C29.2825 11.6999 29.2491 11.4943 29.1998 11.2988C29.1723 11.1888 29.1534 11.0208 29.0345 11.1323C28.9518 11.209 28.9271 11.4305 28.917 11.6217C28.8647 12.0068 28.8415 12.3948 28.8444 12.7829C28.8183 13.472 28.8473 14.1815 28.9808 14.8576C29.0098 15.2862 29.0533 15.7119 29.1041 16.1376L29.1882 16.9353L29.2651 17.7331C29.2869 17.9995 29.3159 18.2645 29.3405 18.5309L29.4131 19.3301L29.5465 20.9285L29.6669 22.5299C29.6684 22.5574 29.6713 22.5849 29.6727 22.611C29.6785 22.6848 29.6829 22.7586 29.6887 22.8339C29.6959 22.944 29.7046 23.054 29.7119 23.164C29.7206 23.2987 29.7307 23.4334 29.7394 23.5695C29.7496 23.7186 29.7597 23.8677 29.7699 24.0154C29.78 24.1674 29.7917 24.3194 29.8018 24.47C29.812 24.6134 29.8221 24.7567 29.8323 24.9C29.841 25.0246 29.8497 25.1491 29.8584 25.2736C29.8671 25.4068 29.8758 25.54 29.8845 25.6732C29.8874 25.7268 29.8888 25.7818 29.9019 25.8339C29.9033 25.8397 29.9048 25.8455 29.9106 25.8498C29.9193 25.8556 29.9309 25.8527 29.9382 25.8455C29.9454 25.8383 29.9483 25.8267 29.9498 25.8165C29.9773 25.6906 29.9802 25.5617 29.9831 25.4343C29.986 25.3054 29.9976 25.1766 30.0049 25.0477C30.0179 24.7784 30.0281 24.5106 30.0368 24.2413C30.0455 23.972 30.0513 23.7027 30.0542 23.4348C30.0586 23.1655 30.06 22.8962 30.06 22.6269C30.06 22.5892 30.06 22.5516 30.06 22.514L30.0557 21.7075L30.0368 20.901L30.0107 20.0946L29.9715 19.2896C29.9396 18.7524 29.9091 18.2152 29.8671 17.6795L29.7975 16.876L29.7931 16.8224C30.089 17.2712 30.4328 17.6897 30.7592 18.1168C31.5788 19.1882 32.2765 20.4609 32.5274 21.819C32.8016 23.3045 32.3722 24.6293 31.7166 25.9483C31.3815 26.623 30.942 27.2731 30.2819 27.6669C29.6916 28.0202 28.9837 28.1288 28.3063 28.0419C28.167 28.0245 28.0292 27.9985 27.8972 27.9652C28.093 27.2992 28.2337 26.6201 28.328 25.9396C28.357 25.7601 28.3715 25.5776 28.3933 25.3981C28.4151 25.2171 28.4296 25.0376 28.4412 24.8552L28.4586 24.5844C28.4644 24.4946 28.4658 24.4034 28.4687 24.3137C28.5311 21.7973 28.241 19.1419 27.3445 16.779C26.9703 15.7901 26.4988 14.7592 26.3306 13.7327C26.3378 13.7761 26.2044 13.0362 26.1202 13.307C25.7329 14.5623 25.3297 15.8234 24.967 17.0932C24.896 16.6964 24.7799 16.3099 24.6218 15.9392C24.6145 15.9117 24.6058 15.8842 24.5986 15.8552C24.6 15.8509 24.6029 15.8451 24.6044 15.8407C24.9018 15.1009 25.1614 14.3465 25.4138 13.5908C25.6981 12.7409 25.9679 11.8866 26.2247 11.028C26.4321 10.336 26.6294 9.64099 26.8194 8.94456C27.1995 7.91947 27.6346 6.91465 28.1235 5.93445C28.3846 5.52181 28.6109 5.086 28.8053 4.63861C28.8734 4.48369 28.7255 3.99721 28.6965 3.87559C28.6138 3.53389 28.5122 3.19654 28.3991 2.86208C28.2976 2.56237 28.1902 2.26121 28.0539 1.97454C28.035 1.934 27.7913 1.50398 27.7608 1.559C27.5302 1.97309 27.3083 2.39297 27.0965 2.81575C26.7541 3.35146 26.348 3.84663 25.8722 4.27085C25.4631 4.63571 25.0033 4.94411 24.5043 5.16998C23.9197 5.43349 23.2873 5.55077 22.6838 5.76215C21.5712 6.15308 20.888 6.93348 20.904 8.13955C20.917 9.04591 21.1767 9.95372 21.4465 10.8123C21.7105 11.6506 22.0238 12.4803 22.4111 13.2708C22.7143 13.8905 23.0508 14.4957 23.399 15.0936C23.2539 15.5888 23.1016 16.0796 22.9348 16.569C22.7128 17.2235 22.4691 17.8692 22.2008 18.5063C22.1167 18.0343 22.0195 17.5695 21.9165 17.1236C21.8454 16.8123 21.7758 16.4619 21.6423 16.168C21.5857 16.0434 21.5422 15.9102 21.4494 16.0333C21.3421 16.1767 21.4436 16.6689 21.4581 16.805C21.5045 17.2278 21.5698 17.6491 21.6655 18.0632C21.6655 18.0632 21.68 18.1298 21.6931 18.195C21.6974 18.2674 21.7047 18.3861 21.7047 18.4078C21.7119 18.7987 21.6786 19.1911 21.6017 19.5748C21.4828 20.1757 21.2739 20.7563 20.9664 21.2818C20.8706 20.4841 20.7285 19.6964 20.5674 18.9334C20.5022 18.6264 20.4253 18.2688 20.2933 17.9778C20.2367 17.8533 20.1932 17.7201 20.1004 17.8431C19.993 17.9865 20.0946 18.4788 20.1091 18.6149C20.1265 18.7727 20.1468 18.929 20.1714 19.0854C20.1961 19.2403 20.2208 19.3953 20.2527 19.5487C20.2846 19.7037 20.3092 19.86 20.3237 20.0164C20.3368 20.1597 20.3397 20.3031 20.3412 20.4464C20.3441 20.6071 20.3412 20.7678 20.3354 20.9285C20.3354 20.9474 20.3339 20.9662 20.3325 20.9836C20.3049 21.6583 20.2498 22.3808 20.0133 23.0193C19.8044 23.5854 19.2779 24.1283 18.6179 24.0111C18.0536 23.9111 17.7751 23.3407 17.5749 22.8658C17.5648 22.8412 17.4386 22.54 17.382 22.7311C16.9541 24.1776 16.5102 25.65 15.7196 26.9488C13.8339 30.0472 9.7563 30.9391 6.55924 29.4188C4.65898 28.5154 3.15764 26.8706 2.26988 24.9652C1.27769 22.8325 1.03254 20.4175 1.17035 18.0705C1.4271 13.7327 3.03434 9.32969 6.19949 6.26022C6.51717 5.94314 6.85515 5.64632 7.19894 5.35675C7.37446 5.21631 7.54708 5.07152 7.7284 4.93832C7.81834 4.87027 7.90682 4.80222 7.99821 4.73562L8.27382 4.54016C9.00781 4.01458 9.79257 3.56574 10.6063 3.16034C12.2324 2.35243 13.9847 1.77763 15.7863 1.40553C16.6872 1.2231 17.6025 1.08555 18.5236 1.00736L19.2155 0.95524L19.9103 0.923387C20.1424 0.916148 20.3745 0.916148 20.6066 0.910356C20.8387 0.908908 21.0693 0.910356 21.3 0.917596C22.2225 0.949449 23.1466 1.04935 24.0546 1.24771C24.1547 1.27232 24.2563 1.29404 24.3549 1.31721C24.4564 1.34182 24.5594 1.36788 24.661 1.39539C24.7625 1.4229 24.864 1.45186 24.9656 1.48226C25.0671 1.51267 25.1672 1.54307 25.2688 1.57637C25.3688 1.60823 25.4689 1.64298 25.569 1.67772C25.6691 1.71247 25.7678 1.74867 25.8678 1.78631C25.9665 1.82396 26.0651 1.86305 26.1638 1.90359C26.2624 1.94413 26.3596 1.98612 26.4568 2.02811C26.5061 2.04983 26.554 2.07154 26.6033 2.09326C26.6279 2.10629 26.6541 2.11498 26.6787 2.12801C26.7034 2.14104 26.7266 2.15552 26.7512 2.16855C26.76 2.17289 26.7701 2.17724 26.7803 2.17869C26.7846 2.17869 26.7904 2.17869 26.7948 2.17579C26.802 2.17 26.802 2.15842 26.7991 2.14973C26.7948 2.1367 26.7861 2.12512 26.7774 2.11498C26.7411 2.07299 26.6947 2.04259 26.6483 2.01218C26.5641 1.95572 26.4785 1.90214 26.3915 1.84857C26.3045 1.795 26.2174 1.74288 26.1304 1.6922C26.0419 1.64153 25.9534 1.5923 25.8635 1.54452C25.7736 1.49674 25.6836 1.44896 25.5922 1.40408C25.5009 1.35775 25.4095 1.31431 25.3166 1.27087C25.2238 1.22744 25.131 1.18545 25.0367 1.14491C24.9424 1.10437 24.8481 1.06528 24.7538 1.02619C24.6595 0.988541 24.5638 0.950896 24.468 0.9147C24.3723 0.878503 24.2751 0.843754 24.1794 0.810453C23.7253 0.652636 23.2612 0.517985 22.7897 0.413738C22.3183 0.308044 21.8425 0.224068 21.3624 0.163257C16.3289 -0.463668 11.0154 0.716342 6.87256 3.68012C5.05354 4.98175 3.47821 6.62798 2.33226 8.55074C-0.56019 13.404 -0.568893 19.5835 1.24723 24.9319C1.91884 26.9126 2.84141 28.8397 4.23251 30.4034C5.62361 31.9671 7.51952 33.1471 9.59964 33.3903C11.5188 33.6147 13.4988 32.9661 14.9755 31.7354C16.6988 30.2962 17.395 28.1158 18.013 26.0352C18.2581 26.5752 18.6077 27.1602 19.2112 27.2673C20.0888 27.4237 20.6313 26.4912 20.8053 25.7774C20.8866 25.4459 20.9475 25.11 20.9925 24.7697C21.0534 24.916 21.1491 25.1259 21.1781 25.0897C22.4126 23.5405 22.575 21.5584 22.3618 19.6269C23.1799 18.7336 23.7892 17.6839 24.2853 16.5849C24.2882 16.5907 24.2925 16.5965 24.2954 16.6009C24.323 16.6573 24.3549 16.7138 24.3868 16.7688C24.4506 16.8789 24.5159 16.9904 24.5797 17.1004C24.6668 17.2481 24.7524 17.3972 24.8394 17.5449C24.6465 18.2442 24.4666 18.9464 24.3114 19.6515C23.9995 21.0733 23.898 22.5212 23.9357 23.9749C23.9676 25.22 24.1185 26.4637 24.5101 27.6495C24.7567 28.3981 25.1324 29.1423 25.6387 29.7678C25.6082 29.8199 25.5792 29.872 25.5473 29.9227L25.2804 30.3397C25.1846 30.4729 25.0874 30.6061 24.9932 30.7422C24.8974 30.8768 24.7915 31.0028 24.6929 31.1331C24.587 31.2591 24.4796 31.3836 24.3723 31.5081C24.2592 31.6283 24.1489 31.7499 24.0343 31.8686C23.8037 32.1032 23.5643 32.3319 23.3119 32.5462C22.8086 32.9748 22.2675 33.3614 21.6974 33.7045C19.4142 35.0785 16.6712 35.6418 13.9514 35.4622C13.271 35.4173 12.5907 35.3334 11.9162 35.2016C11.7465 35.1726 11.5797 35.1321 11.4114 35.0974C11.2446 35.0554 11.0763 35.0206 10.9124 34.9728C10.5788 34.8874 10.2509 34.7846 9.92602 34.6746C9.79692 34.6311 9.66927 34.5834 9.54162 34.5341C9.39221 34.4762 9.2428 34.4169 9.09484 34.3532C8.94688 34.2894 8.80037 34.2229 8.65532 34.1534C8.51026 34.0839 8.36665 34.01 8.2245 33.9347C8.08234 33.858 7.94163 33.7784 7.80238 33.6958C7.66312 33.6133 7.52677 33.5264 7.39187 33.4367C7.25696 33.3469 7.12351 33.2528 6.99296 33.1558C6.86241 33.0588 6.7333 32.9574 6.60855 32.8532C6.50992 32.7706 6.41128 32.6881 6.31989 32.5983C6.30103 32.5795 6.28218 32.5607 6.26042 32.5448C6.25316 32.539 6.24446 32.5317 6.23576 32.5274C6.23141 32.5259 6.2256 32.5231 6.22125 32.526C6.2169 32.5288 6.21545 32.5332 6.21545 32.5375C6.214 32.5506 6.22125 32.5636 6.22705 32.5752C6.26767 32.649 6.32134 32.7171 6.37356 32.7822C6.478 32.9111 6.5868 33.037 6.69994 33.1601C6.81309 33.2832 6.92913 33.4034 7.04953 33.5192C7.16993 33.635 7.29468 33.7479 7.42233 33.8565C7.54998 33.9651 7.68198 34.0708 7.81543 34.1722C8.38986 34.6109 9.01796 34.9772 9.67217 35.2914C10.3278 35.5998 11.0111 35.8575 11.7102 36.0558C12.408 36.2557 13.1216 36.4106 13.8469 36.509C15.2946 36.7088 16.7829 36.6973 18.2422 36.4395C18.9718 36.3136 19.6927 36.1239 20.3948 35.8734C21.0969 35.6258 21.7758 35.3088 22.4227 34.9381C23.0711 34.5689 23.6876 34.1389 24.2592 33.6538C24.8321 33.1702 25.3645 32.6345 25.8301 32.0438C26.158 31.6355 26.451 31.2026 26.7135 30.7538C27.0907 30.9999 27.5084 31.1867 27.9683 31.2895C28.7864 31.4734 29.6742 31.3763 30.3835 30.9116C31.1015 30.441 31.5831 29.6867 31.9356 28.9222C33.1396 26.3103 33.3296 23.3523 33.0438 20.5246C33.0438 20.5289 33.0308 20.3856 33.0003 20.2538C32.9989 20.2437 32.9989 20.2336 32.9974 20.2249C32.8596 19.1086 32.5782 18.0111 32.1213 16.986C32.159 16.1419 32.1604 15.2964 32.1401 14.4508L32.1082 13.6023C32.0923 13.32 32.0807 13.0377 32.0618 12.7553L31.9965 11.9083L31.9138 11.0628C31.7905 9.93635 31.6266 8.81425 31.4163 7.70085L31.3757 7.4938C32.3099 8.66512 33.305 9.79156 34.1347 11.0411C35.7448 13.4634 37.1011 16.3417 37.1809 19.2925C37.2708 22.6153 35.755 26.054 33.9389 28.7702C33.5356 29.3739 33.1019 29.9545 32.6362 30.5105C32.1735 31.0679 31.6774 31.5979 31.1523 32.0959C30.6315 32.5969 30.076 33.0646 29.4943 33.4989C28.9155 33.9376 28.3106 34.3401 27.6825 34.7079C26.4307 35.4492 25.086 36.0486 23.692 36.4902C22.3125 36.9231 20.8431 37.1374 19.3577 37.2026C19.2083 37.2098 19.0574 37.2141 18.9065 37.2185C18.6744 37.2243 18.4438 37.2257 18.2117 37.2257C17.9796 37.2243 17.7475 37.2199 17.5154 37.2141C17.2819 37.2069 17.0498 37.1968 16.8163 37.1837C16.5827 37.1707 16.3492 37.1548 16.1156 37.1374C15.8821 37.1186 15.6485 37.0983 15.415 37.0751C15.209 37.0549 15.0001 37.0389 14.7956 37.0028C14.7666 36.997 14.7361 36.9912 14.7071 36.9926C14.6955 36.9926 14.6796 36.9955 14.6752 37.0071C14.6723 37.0143 14.6738 37.023 14.6781 37.0288C14.6868 37.0404 14.6999 37.0476 14.7144 37.052C14.8174 37.0925 14.9276 37.1186 15.0335 37.149C15.1452 37.1823 15.2554 37.2156 15.3671 37.246C15.5818 37.3068 15.798 37.3647 16.0155 37.4197C16.2331 37.4733 16.4507 37.524 16.6712 37.5718C16.8902 37.6181 17.1107 37.6615 17.3327 37.7006C17.5546 37.7397 17.7765 37.7759 17.9985 37.8078C18.2219 37.8396 18.4453 37.8686 18.6701 37.8917C18.8949 37.9164 19.1198 37.9366 19.3461 37.9525C20.8851 38.0626 22.4604 37.9916 24.0039 37.6297C25.5313 37.275 27.0036 36.7088 28.3933 35.9733C29.0867 35.6027 29.7568 35.1886 30.4009 34.7354C31.042 34.2779 31.6556 33.7827 32.2373 33.247C32.8147 32.7098 33.3572 32.1365 33.8649 31.5342C34.3682 30.929 34.8353 30.2933 35.2603 29.6317C36.106 28.3069 36.7878 26.8764 37.265 25.3836C37.9482 23.2104 38.1194 20.8764 37.925 18.5975ZM29.3434 12.5584C29.3434 12.557 29.3434 12.5541 29.342 12.5526C29.3434 12.5584 29.3449 12.5642 29.3478 12.5715C29.3463 12.5671 29.3449 12.5628 29.3434 12.5584ZM21.9774 10.9354C21.9774 10.7819 21.9977 10.6241 22.0296 10.475C22.1631 9.85672 22.5982 9.42815 23.1466 9.14437C23.6963 8.86059 24.3056 8.74186 24.8916 8.55509C24.8626 8.65933 24.835 8.76213 24.8075 8.86638C24.7944 8.91561 24.7915 8.97786 24.7973 9.04591C24.6958 9.47883 24.6218 9.91898 24.5333 10.3519C24.3897 11.0527 24.2403 11.7505 24.0793 12.4469C23.9632 12.9494 23.8399 13.4503 23.7094 13.9498C23.1089 12.9595 22.4866 11.972 21.9774 10.9354ZM24.3665 23.3639C24.4057 23.0772 24.4825 22.6805 24.5536 22.3692C24.9859 20.4725 25.5763 18.6004 26.1522 16.7413C26.3552 17.639 26.657 18.5019 26.992 19.3663C27.272 20.0902 27.5984 20.7997 27.7072 21.5757C27.8653 22.7138 27.5868 23.8648 27.3837 24.9782C27.3677 25.0622 27.3474 25.1462 27.33 25.2302C27.2923 25.3967 27.2619 25.5646 27.2169 25.7297C27.1734 25.8947 27.1371 26.0612 27.0921 26.2248L26.9529 26.7142L26.7962 27.1964C26.7701 27.2789 26.7411 27.3585 26.7121 27.4396C25.9882 26.9589 25.4167 26.2451 25.0222 25.4473C24.6972 24.7943 24.468 24.0863 24.3665 23.3639Z" fill="#FBCF50"></path>
  <path d="M21.4261 4.81525L21.6959 4.80512L21.9658 4.80077C22.1456 4.79498 22.3269 4.79788 22.5068 4.79788C22.6113 4.79932 22.7157 4.80077 22.8216 4.80367C22.9275 4.80656 23.0348 4.81091 23.1407 4.81525C23.2466 4.81959 23.354 4.82539 23.4598 4.83263C23.5657 4.83986 23.6731 4.8471 23.779 4.85434C23.8863 4.86303 23.9922 4.87172 24.0981 4.88185C24.2054 4.89199 24.3113 4.90212 24.4187 4.91371C24.4694 4.9195 24.5217 4.92384 24.5724 4.93108C24.6247 4.93687 24.6769 4.94701 24.7276 4.93977C24.7291 4.93977 24.7306 4.93977 24.732 4.93977C24.7407 4.93832 24.7523 4.93542 24.7552 4.92674C24.7581 4.92095 24.7552 4.91515 24.7523 4.90936C24.7494 4.90357 24.7436 4.90068 24.7393 4.89778C24.7015 4.87172 24.6566 4.85869 24.6131 4.84566C24.5652 4.83263 24.5188 4.81815 24.4723 4.80512C24.41 4.78774 24.3476 4.77037 24.2852 4.75299C24.1866 4.72693 24.0865 4.70087 23.9879 4.6777C23.8878 4.65309 23.7891 4.63137 23.689 4.60821C23.5889 4.58649 23.4889 4.56622 23.3873 4.54595C23.2872 4.52713 23.1857 4.5083 23.0841 4.49093C22.9826 4.47355 22.8811 4.45763 22.7795 4.4417C22.678 4.42722 22.5764 4.41274 22.4735 4.39971C22.3719 4.38668 22.2689 4.3751 22.1674 4.36352C22.0644 4.35193 21.9629 4.3418 21.8599 4.33311C21.7569 4.32442 21.6539 4.31574 21.5523 4.3085C21.4493 4.30126 21.3464 4.29547 21.2434 4.28968C21.1404 4.28388 21.0374 4.27954 20.9344 4.27665C20.8314 4.27375 20.7284 4.27085 20.6254 4.26941C20.5224 4.26796 20.4194 4.26651 20.3164 4.26651C19.5752 4.26796 18.834 4.30995 18.0971 4.39247C17.3602 4.47355 16.6247 4.58359 15.8936 4.72838C14.4329 5.02085 12.9867 5.44942 11.6043 6.06331C11.2591 6.21823 10.9167 6.38039 10.5816 6.55848C10.4119 6.64246 10.248 6.73946 10.0826 6.83358C9.99995 6.88135 9.91727 6.92769 9.83604 6.97691L9.59379 7.12749C8.94684 7.5271 8.33034 7.98897 7.75301 8.49283C7.17568 8.99813 6.64187 9.55411 6.15738 10.1506C4.32385 12.4108 3.29249 15.2819 3.51733 18.2008C3.63193 19.6877 4.0555 21.1385 4.62412 22.5183C5.11442 23.7084 5.73091 24.8754 6.66073 25.7673C9.65762 28.6413 14.1036 26.5274 15.4411 23.0728C16.2258 21.0444 16.1214 18.6047 15.6441 16.5126C15.0886 14.0787 13.5669 11.5218 10.7281 11.7071C9.50386 11.7867 8.3608 12.3963 7.63407 13.4083C6.79853 14.5724 6.64912 15.9218 6.79273 17.3263C6.86961 18.082 6.9726 18.9261 7.28158 19.624C7.32944 19.7312 7.37876 19.8991 7.4774 19.763C7.56879 19.6385 7.51077 19.2621 7.48176 19.0594C7.48176 19.0304 7.4745 18.9435 7.47595 18.9392C7.4803 18.8233 7.49046 18.709 7.50787 18.5946C7.54413 18.3629 7.60215 18.1342 7.67613 17.9126C7.8386 17.4204 8.08519 16.9556 8.41447 16.5574C9.06433 15.7727 9.984 15.2717 10.9776 15.1241C12.5834 14.8852 14.1834 15.612 15.0364 16.9932C15.1205 17.1293 15.1974 17.2712 15.2307 17.4276C15.2655 17.5927 15.251 17.765 15.2293 17.9329C15.003 19.7341 14.1588 21.5323 12.6705 22.6283C10.5686 24.1747 7.66163 24.095 5.82955 22.1679C5.49447 21.8161 5.2029 21.415 5.01723 20.9662C4.86637 20.6028 4.78804 20.2147 4.73146 19.8253C4.27018 16.6631 5.32185 13.5386 7.31784 11.0845C7.75156 10.5502 8.23025 10.0493 8.7365 9.58018C9.75045 8.64341 10.9109 7.84998 12.1526 7.1912C12.7749 6.86398 13.419 6.56862 14.0804 6.31234C14.7419 6.05607 15.4208 5.836 16.1112 5.64777C16.8003 5.4581 17.5023 5.30318 18.2088 5.17432C18.3857 5.14102 18.5627 5.11496 18.7397 5.08455C18.9166 5.05849 19.0951 5.02954 19.2735 5.00782C19.6289 4.95859 19.9872 4.9166 20.3455 4.8833C20.7067 4.85724 21.0664 4.82973 21.4261 4.81525Z" fill="#FBCF50"></path>
  <path d="M11.088 20.9445C11.9525 20.9445 12.7808 20.1699 12.7416 19.2592C12.701 18.3456 12.0149 17.5738 11.088 17.5738C10.2234 17.5738 9.39514 18.3485 9.43576 19.2592C9.47493 20.1728 10.161 20.9445 11.088 20.9445Z" fill="#FBCF50"></path>
  <path d="M27.2836 33.6813C27.2502 33.7146 27.2139 33.745 27.1791 33.7769C27.1066 33.8421 27.0297 33.9014 26.9499 33.955C26.7396 34.0969 26.5032 34.2026 26.2551 34.2576C26.1608 34.2779 26.0636 34.2894 25.965 34.2981C25.8664 34.3039 25.7663 34.3054 25.6633 34.301C25.6575 34.301 25.6502 34.3039 25.6473 34.3112C25.6444 34.3199 25.6473 34.3285 25.656 34.3329C25.7518 34.3749 25.8533 34.4053 25.9578 34.4255C26.0622 34.4444 26.1695 34.4531 26.2769 34.4516C26.5496 34.4473 26.8324 34.3836 27.0718 34.2504C27.2357 34.1591 27.3793 34.0317 27.4736 33.8696C27.5969 33.6596 27.6433 33.3918 27.6665 33.1529C27.6723 33.1007 27.6723 33.0457 27.6535 32.9979C27.6477 32.982 27.639 32.9675 27.6274 32.9545C27.5955 32.9154 27.5432 32.8966 27.4939 32.8923C27.3489 32.8792 27.2096 32.9458 27.0674 32.9589C26.979 32.9675 26.8687 32.982 26.7875 32.9328C26.773 32.9241 26.7614 32.9125 26.7512 32.9009C26.8586 32.7576 27.0761 32.5448 27.2415 32.7286C27.2531 32.7417 27.3503 32.4231 27.3561 32.3971C27.3706 32.3232 27.4417 32.1133 27.3822 32.0482C27.2067 31.8527 26.963 32.1032 26.8557 32.2494C26.683 32.4869 26.6091 32.7924 26.5612 33.0776C26.5249 33.2933 26.4771 33.6234 26.7788 33.6451C26.9021 33.6553 27.0355 33.6278 27.1559 33.6061C27.2256 33.593 27.3053 33.5626 27.3764 33.5742C27.3779 33.5742 27.3808 33.5742 27.3822 33.5756C27.3692 33.5742 27.2981 33.6669 27.2836 33.6813Z" fill="#FBCF50"></path>
  <path d="M21.8773 29.0598C21.8701 29.1003 21.8527 29.1394 21.8309 29.1741C21.8092 29.2103 21.7831 29.2436 21.7497 29.2697C21.7192 29.2943 21.6844 29.3146 21.6467 29.3291C21.609 29.345 21.5698 29.3551 21.5307 29.3638C21.49 29.3725 21.4494 29.3768 21.4088 29.3812C21.3783 29.3841 21.3479 29.387 21.3174 29.3899C21.0897 29.4072 20.9127 29.4275 20.6966 29.5187C20.2382 29.7127 19.8364 30.024 19.4839 30.3715C19.0299 30.8189 18.6455 31.3315 18.219 31.8064C16.9671 33.2007 15.3556 34.0477 13.4829 34.2475C13.4669 34.2489 13.4538 34.2605 13.4524 34.2764C13.4495 34.2952 13.464 34.3126 13.4814 34.3141C15.3628 34.5428 17.2152 33.8001 18.644 32.607C18.9457 32.3551 19.23 32.08 19.4926 31.7861C19.7435 31.5052 19.964 31.178 20.2687 30.9492C20.5486 30.7378 20.9069 30.6408 21.2579 30.6452C21.4045 30.6466 21.5582 30.664 21.6888 30.5988C21.8266 30.5308 21.9078 30.3831 21.9484 30.2354C21.9876 30.0892 22.0064 29.9314 22.0253 29.7822C22.0326 29.72 22.0993 29.3421 22.0558 29.3059C22.2458 29.4579 22.5127 29.3508 22.6592 29.1654C22.8492 28.9266 22.8695 28.566 22.8898 28.275C22.9218 27.8276 22.9102 27.3773 22.8565 26.9328C22.8304 26.7157 22.7709 26.7272 22.739 26.9328C22.6984 27.1906 22.7027 27.4671 22.7274 27.7306C22.7187 27.7567 22.7027 27.7943 22.6723 27.845C22.6157 27.9377 22.5374 28.0245 22.4358 28.0694C22.3009 28.1273 22.0949 28.1129 22.0093 27.9782C22.0006 27.8826 21.9818 27.7509 21.9325 27.761C21.8643 27.7741 21.8643 28.1925 21.8628 28.22C21.8614 28.262 21.8599 28.304 21.857 28.3474C21.8541 28.3937 21.8527 28.4415 21.8498 28.4893C21.8483 28.5385 21.8469 28.5892 21.8469 28.6384C21.8469 28.6891 21.8483 28.7398 21.8512 28.7905C21.8527 28.818 21.8556 28.8469 21.8585 28.8744C21.8599 28.8875 21.8628 28.9005 21.8628 28.9135C21.8628 28.9193 21.8657 28.9266 21.8672 28.9323C21.8686 28.9396 21.8701 28.9454 21.8715 28.9526C21.8773 28.9801 21.8817 29.0076 21.8802 29.0366C21.8802 29.0424 21.8788 29.0511 21.8773 29.0598Z" fill="#EA3D71"></path>
  <path d="M18.2116 17.8967C18.2697 17.6694 18.3349 17.4479 18.4176 17.2292C18.4582 17.1192 18.5003 17.0106 18.5467 16.9035C18.5902 16.7949 18.6367 16.6863 18.6845 16.5777L18.9819 15.9218C19.0834 15.7018 19.185 15.4773 19.2865 15.25C19.3895 15.0227 19.4896 14.791 19.5853 14.555C19.7754 14.083 19.9436 13.5879 20.0365 13.0681C20.0829 12.8089 20.1119 12.5454 20.1148 12.279C20.1148 12.014 20.0901 11.7491 20.0394 11.4899C19.9349 10.9745 19.7072 10.475 19.3489 10.1101C19.3373 10.0985 19.3199 10.0956 19.3054 10.1029C19.2865 10.1115 19.2793 10.1347 19.288 10.1535C19.507 10.5966 19.6086 11.0686 19.6086 11.5377C19.6158 12.0082 19.5259 12.4643 19.3866 12.9103C19.2459 13.3562 19.0501 13.7891 18.8368 14.222C18.7295 14.4392 18.6178 14.6549 18.5047 14.875C18.3915 15.0951 18.2769 15.3166 18.1696 15.5468C17.9549 16.0044 17.7678 16.4923 17.6532 17.0092C17.5952 17.2669 17.5632 17.5333 17.5386 17.7939C17.5197 18.0574 17.5154 18.3195 17.5299 18.5787C17.5444 18.8393 17.5661 19.097 17.614 19.3518C17.6329 19.4792 17.6648 19.6052 17.6909 19.7297C17.7243 19.8542 17.7533 19.9787 17.7939 20.1004C17.9476 20.5897 18.171 21.0516 18.4524 21.4672C18.4626 21.4816 18.48 21.4874 18.4974 21.4816C18.5163 21.4744 18.5264 21.4527 18.5192 21.4324C18.3407 20.9691 18.2073 20.4985 18.1377 20.0207C18.1159 19.902 18.1058 19.7818 18.0912 19.6631C18.084 19.5429 18.0709 19.4242 18.0709 19.304C18.0608 19.0651 18.0738 18.8277 18.0927 18.5917C18.1174 18.3571 18.158 18.1255 18.2116 17.8967Z" fill="#EA3D71"></path>
  <path d="M18.0115 8.90546C17.778 8.94455 17.4559 8.7795 17.3747 8.46531V8.46386C17.3704 8.44938 17.3602 8.43925 17.3442 8.43635C17.3239 8.43201 17.3036 8.44649 17.2993 8.46676C17.2659 8.65064 17.3312 8.85479 17.4603 9.00681C17.5865 9.16029 17.7794 9.27612 18.0028 9.30073C18.2204 9.32534 18.4423 9.26888 18.628 9.15739C18.8122 9.04735 18.9732 8.8765 19.0675 8.6738C19.1647 8.474 19.2024 8.25392 19.1952 8.03964C19.1865 7.82535 19.1328 7.61541 19.0371 7.41995C18.9878 7.3215 18.9239 7.22449 18.8441 7.13472C18.7629 7.04351 18.6672 6.96967 18.57 6.91175C18.3742 6.79592 18.1624 6.73077 17.9477 6.7105C17.733 6.69023 17.5198 6.7076 17.321 6.76407C17.1209 6.81764 16.9323 6.90451 16.7626 7.02034C16.4217 7.252 16.1809 7.57922 16.0257 7.92381C15.8719 8.2713 15.8052 8.64195 15.8008 8.99812C15.7994 9.17621 15.8095 9.35285 15.8342 9.5266C15.8371 9.54687 15.8415 9.56569 15.8444 9.58596C15.6108 9.19069 15.2496 8.84755 14.8101 8.65498C14.5693 8.54784 14.3053 8.48268 14.0355 8.46965C13.7671 8.45662 13.493 8.49572 13.2377 8.58548C13.1738 8.60865 13.1129 8.63471 13.0505 8.66077C12.9896 8.68973 12.9316 8.72303 12.8721 8.75488C12.7546 8.82004 12.6458 8.90112 12.5428 8.99089C12.3398 9.17187 12.1686 9.40497 12.0743 9.67862C11.9829 9.95227 11.9742 10.252 12.0714 10.5343C12.1222 10.6748 12.1962 10.8051 12.2977 10.9165C12.3992 11.028 12.5283 11.1207 12.6705 11.1757C12.8141 11.2307 12.9679 11.2496 13.1144 11.2351C13.2609 11.2192 13.3972 11.1714 13.5191 11.1048C13.6409 11.0367 13.7584 10.9412 13.8397 10.8065C13.8788 10.7385 13.9093 10.6617 13.9209 10.5864C13.9325 10.5097 13.9296 10.4344 13.918 10.3635C13.8919 10.2201 13.8266 10.0913 13.7309 9.98991C13.683 9.93924 13.6279 9.89435 13.5655 9.86105C13.5046 9.8292 13.4393 9.80748 13.374 9.79445C13.1274 9.74812 12.8852 9.8292 12.7169 9.98123C12.6879 10 12.6618 10.0218 12.6357 10.0464C12.627 10.0551 12.6183 10.0638 12.611 10.0724C12.6212 10.0131 12.64 9.95372 12.6632 9.89725C12.7256 9.74812 12.8388 9.61347 12.978 9.50343C13.1173 9.39339 13.287 9.31086 13.4582 9.25729C13.8048 9.1516 14.1834 9.19069 14.5301 9.32245C14.8783 9.4571 15.2003 9.68297 15.4425 10.0029C15.5644 10.1622 15.6659 10.3417 15.7472 10.5358C15.8269 10.7298 15.885 10.9368 15.9241 11.1482C16.0039 11.5724 16.0213 12.0169 15.9996 12.4672C15.9981 12.4846 16.0097 12.5005 16.0257 12.5049C16.046 12.5106 16.0663 12.5005 16.0735 12.4802C16.2113 12.0444 16.2781 11.5811 16.2621 11.1106C16.2534 10.876 16.2244 10.6386 16.1664 10.4026C16.1301 10.2491 16.0808 10.0971 16.0199 9.94792C16.0387 9.80748 16.0561 9.66704 16.0793 9.53094C16.1069 9.36588 16.1374 9.20372 16.1765 9.04735C16.2549 8.73317 16.368 8.4407 16.5276 8.18732C16.6842 7.9325 16.8917 7.72256 17.1223 7.5879C17.3544 7.4547 17.6271 7.39099 17.8737 7.4185C17.9361 7.42429 17.9941 7.44022 18.0521 7.4547C18.1087 7.47352 18.1653 7.49524 18.2131 7.52275C18.261 7.55026 18.3016 7.57922 18.335 7.61252C18.3698 7.64727 18.4032 7.6907 18.4322 7.74138C18.5569 7.95132 18.599 8.22496 18.5308 8.44938C18.467 8.66656 18.2567 8.87071 18.0115 8.90546Z" fill="#EA3D71"></path>
  <path d="M28.344 9.48171C28.3875 9.85237 28.6965 10.3722 29.1172 9.99715C29.416 9.7293 29.3638 9.18201 29.3376 8.82438C29.3304 8.73317 29.3434 8.62458 29.2738 8.69697C29.2085 8.76502 29.2405 8.92429 29.2245 9.01116C29.1868 9.20372 29.091 9.36733 28.888 9.40353C28.7357 9.42525 28.5833 9.35285 28.4992 9.22255C28.3309 8.96193 28.5717 8.51454 28.666 8.25248C28.8546 7.72256 29.0098 7.2187 29.0403 6.65403C29.0446 6.57585 29.0794 6.266 29.0084 6.21533C28.959 6.17913 28.9518 6.44409 28.9518 6.46436C28.9242 7.00731 28.6327 7.52999 28.4818 8.04543C28.344 8.50585 28.2889 9.00247 28.344 9.48171Z" fill="#EA3D71"></path>
  <path d="M33.8866 13.0522C33.6066 13.4286 33.4529 13.8992 33.3977 14.3741C33.3455 14.8519 33.3847 15.3354 33.4862 15.8031C33.5878 16.2737 33.7488 16.7182 33.9199 17.1482C34.0926 17.5782 34.2782 17.9937 34.4393 18.4064C34.6017 18.819 34.7439 19.2215 34.857 19.6385C34.9702 20.054 35.0616 20.4783 35.1007 20.9112C35.1399 21.3441 35.1239 21.7813 35.0645 22.2157C35.0035 22.6515 34.8904 23.0815 34.7279 23.5101L34.7932 23.5477C35.0906 23.1887 35.3096 22.7586 35.459 22.3069C35.6084 21.8537 35.6809 21.3774 35.7042 20.8981C35.7245 20.4189 35.694 19.9353 35.5997 19.4633C35.5069 18.9913 35.3459 18.5294 35.15 18.1038C34.7613 17.2495 34.2942 16.4807 34.0099 15.6569C33.8692 15.2457 33.7676 14.8185 33.7473 14.3842C33.7227 13.9498 33.7821 13.5082 33.9533 13.0884L33.8866 13.0522Z" fill="#EA3D71"></path>
</svg>
