<?xml version="1.0" encoding="UTF-8"?>
<svg id="Layer_1" xmlns="http://www.w3.org/2000/svg" version="1.1" xmlns:svgjs="http://svgjs.com/svgjs" viewBox="0 0 512 512">
  <!-- Generator: Adobe Illustrator 29.6.0, SVG Export Plug-In . SVG Version: 2.1.1 Build 142)  -->
  <defs>
    <style>
      .st0 {
        fill: #ca9836;
      }
    </style>
  </defs>
  <path class="st0" d="M266.61,324.83l-47.57-40.14,48.27-46.23c5.98-5.73,6.19-15.22.46-21.21-.64-.67-1.34-1.28-2.1-1.82l-77.29-55.41,53.79-76.02c4.79-6.76,3.18-16.12-3.58-20.91-.19-.13-.38-.26-.57-.38-24.72-15.85-53.37-24.28-82.85-24.37h-.52c-41.12,0-79.85,16.04-109.1,45.19C16.18,112.81,0,151.68,0,192.99s14.87,77.04,41.86,105.81l147.68,157.37c10.43,11.11,25.15,17.49,40.4,17.49h0c7.04,0,13.13-4.89,14.65-11.77l27-122.37c1.2-5.44-.71-11.1-4.98-14.69h0ZM218.49,440.93c-2.65-1.33-5.04-3.12-7.07-5.28L63.74,278.27c-21.76-23.18-33.74-53.47-33.74-85.28s13.04-64.6,36.73-88.21c23.59-23.51,54.8-36.44,87.93-36.44h.41c18.45.06,36.5,4.17,52.96,11.97l-52.75,74.55c-4.76,6.73-3.2,16.05,3.51,20.85l74.72,53.57-47.27,45.27c-5.98,5.73-6.19,15.22-.46,21.2.37.38.76.75,1.16,1.09l53.39,45.05-21.85,99.02h0Z"/>
  <path class="st0" d="M466.45,83.53c-29.25-29.15-67.98-45.19-109.1-45.19h-.53s0,0,0,0c-29.23.1-57.64,8.39-82.21,23.97-1.93,1.11-3.6,2.63-4.87,4.46l-53.84,77.33c-4.66,6.7-3.12,15.89,3.48,20.69l82.7,60.28-46.83,47.02c-5.85,5.87-5.83,15.37.04,21.21.18.18.36.35.55.52l41,36.91-29.38,124.48c-1.9,8.06,3.09,16.14,11.15,18.04,1.13.27,2.28.4,3.44.4h0c15.24,0,29.97-6.38,40.4-17.49l147.68-157.37c26.99-28.76,41.86-66.34,41.86-105.81s-16.18-80.19-45.55-109.46ZM448.26,278.27l-144.58,154.07,24.4-103.36c1.26-5.33-.49-10.93-4.56-14.59l-35.88-32.3,48.04-48.24c3.09-3.1,4.67-7.4,4.32-11.77-.34-4.37-2.58-8.36-6.12-10.94l-84.98-61.94,43.67-62.73c19.35-11.79,41.53-18.05,64.34-18.13h.43c33.12,0,64.34,12.93,87.92,36.44,23.69,23.61,36.73,54.94,36.73,88.21,0,31.81-11.98,62.1-33.74,85.28h0Z"/>
</svg>