<?xml version="1.0" encoding="UTF-8"?>
<svg id="Layer_1" xmlns="http://www.w3.org/2000/svg" version="1.1" xmlns:svgjs="http://svgjs.com/svgjs" viewBox="0 0 512 512">
  <!-- Generator: Adobe Illustrator 29.6.0, SVG Export Plug-In . SVG Version: 2.1.1 Build 142)  -->
  <defs>
    <style>
      .st0 {
        fill: #ca9836;
      }
    </style>
  </defs>
  <path class="st0" d="M364,32c-40.93.05-80.02,17.01-108,46.88-55.89-59.65-149.55-62.69-209.19-6.81C16.96,100.04.02,139.1,0,180c0,147.36,237.68,292,248,297.68,5.07,3.05,11.41,3.05,16.48,0,9.84-5.68,247.52-150.32,247.52-297.68-.09-81.7-66.3-147.91-148-148ZM256,445.12c-41.36-26.4-224-149.76-224-265.12.05-64.07,52.03-115.96,116.1-115.9,37.73.03,73.08,18.41,94.78,49.26,5.09,7.22,15.07,8.95,22.29,3.87,1.5-1.06,2.81-2.36,3.87-3.87,36.79-52.44,109.14-65.13,161.58-28.34,30.96,21.72,49.38,57.16,49.38,94.98,0,115.28-182.64,238.64-224,265.12Z"/>
</svg>