<svg width="15" height="12" viewBox="0 0 15 12" fill="none" xmlns="http://www.w3.org/2000/svg">
<path d="M0 0.75C0 0.335786 0.340615 0 0.760786 0H1.92822C2.46018 0 2.93558 0.327334 3.1187 0.819697L3.55768 2H13.7309C14.6109 2 15.2233 2.86195 14.9226 3.67718L13.6269 7.18979C13.226 8.27656 12.1783 9 11.0053 9H6.48889C5.31858 9 4.2727 8.27987 3.86983 7.19667L1.7511 1.5H0.760786C0.340615 1.5 0 1.16421 0 0.75Z" fill="#191919"/>
<path d="M4.56484 11C4.56484 10.4477 5.01899 10 5.57922 10C6.13945 10 6.5936 10.4477 6.5936 11C6.5936 11.5523 6.13945 12 5.57922 12C5.01899 12 4.56484 11.5523 4.56484 11Z" fill="#191919"/>
<path d="M10.6511 11C10.6511 10.4477 11.1053 10 11.6655 10C12.2257 10 12.6799 10.4477 12.6799 11C12.6799 11.5523 12.2257 12 11.6655 12C11.1053 12 10.6511 11.5523 10.6511 11Z" fill="#191919"/>
</svg>
