<svg width="38" height="36" viewBox="0 0 38 36" fill="none" xmlns="http://www.w3.org/2000/svg">
<path opacity="0.07" d="M35 4.80518H3C1.3 4.80518 0 6.10518 0 7.80518V25.8052C0 27.5052 1.4 28.8052 3 28.8052H35C36.7 28.8052 38 27.5052 38 25.8052V7.80518C38 6.10518 36.6 4.80518 35 4.80518Z" fill="black"/>
<path d="M35 5.80518C36.1 5.80518 37 6.70518 37 7.80518V25.8052C37 26.9052 36.1 27.8052 35 27.8052H3C1.9 27.8052 1 26.9052 1 25.8052V7.80518C1 6.70518 1.9 5.80518 3 5.80518H35Z" fill="white"/>
<path d="M28.3 14.9052H28C27.6 15.9052 27.3 16.4052 27 17.9052H28.9C28.6 16.4052 28.6 15.7052 28.3 14.9052ZM31.2 20.8052H29.5C29.4 20.8052 29.4 20.8052 29.3 20.7052L29.1 19.8052L29 19.6052H26.6C26.5 19.6052 26.4 19.6052 26.4 19.8052L26.1 20.7052C26.1 20.8052 26 20.8052 26 20.8052H23.9L24.1 20.3052L27 13.5052C27 13.0052 27.3 12.8052 27.8 12.8052H29.3C29.4 12.8052 29.5 12.8052 29.5 13.0052L30.9 19.5052C31 19.9052 31.1 20.2052 31.1 20.6052C31.2 20.7052 31.2 20.7052 31.2 20.8052ZM17.8 20.5052L18.2 18.7052C18.3 18.7052 18.4 18.8052 18.4 18.8052C19.1 19.1052 19.8 19.3052 20.5 19.2052C20.7 19.2052 21 19.1052 21.2 19.0052C21.7 18.8052 21.7 18.3052 21.3 17.9052C21.1 17.7052 20.8 17.6052 20.5 17.4052C20.1 17.2052 19.7 17.0052 19.4 16.7052C18.2 15.7052 18.6 14.3052 19.3 13.6052C19.9 13.2052 20.2 12.8052 21 12.8052C22.2 12.8052 23.5 12.8052 24.1 13.0052H24.2C24.1 13.6052 24 14.1052 23.8 14.7052C23.3 14.5052 22.8 14.3052 22.3 14.3052C22 14.3052 21.7 14.3052 21.4 14.4052C21.2 14.4052 21.1 14.5052 21 14.6052C20.8 14.8052 20.8 15.1052 21 15.3052L21.5 15.7052C21.9 15.9052 22.3 16.1052 22.6 16.3052C23.1 16.6052 23.6 17.1052 23.7 17.7052C23.9 18.6052 23.6 19.4052 22.8 20.0052C22.3 20.4052 22.1 20.6052 21.4 20.6052C20 20.6052 18.9 20.7052 18 20.4052C17.9 20.6052 17.9 20.6052 17.8 20.5052ZM14.3 20.8052C14.4 20.1052 14.4 20.1052 14.5 19.8052C15 17.6052 15.5 15.3052 15.9 13.1052C16 12.9052 16 12.8052 16.2 12.8052H18C17.8 14.0052 17.6 14.9052 17.3 16.0052C17 17.5052 16.7 19.0052 16.3 20.5052C16.3 20.7052 16.2 20.7052 16 20.7052M5 13.0052C5 12.9052 5.2 12.8052 5.3 12.8052H8.7C9.2 12.8052 9.6 13.1052 9.7 13.6052L10.6 18.0052C10.6 18.1052 10.6 18.1052 10.7 18.2052C10.7 18.1052 10.8 18.1052 10.8 18.1052L12.9 13.0052C12.8 12.9052 12.9 12.8052 13 12.8052H15.1C15.1 12.9052 15.1 12.9052 15 13.0052L11.9 20.3052C11.8 20.5052 11.8 20.6052 11.7 20.7052C11.6 20.8052 11.4 20.7052 11.2 20.7052H9.7C9.6 20.7052 9.5 20.7052 9.5 20.5052L7.9 14.3052C7.7 14.1052 7.4 13.8052 7 13.7052C6.4 13.4052 5.3 13.2052 5.1 13.2052L5 13.0052Z" fill="#142688"/>
</svg>
