<svg width="38" height="36" viewBox="0 0 38 36" fill="none" xmlns="http://www.w3.org/2000/svg">
<path opacity="0.07" d="M35 4.80518H3C1.3 4.80518 0 6.10518 0 7.80518V25.8052C0 27.5052 1.4 28.8052 3 28.8052H35C36.7 28.8052 38 27.5052 38 25.8052V7.80518C38 6.10518 36.6 4.80518 35 4.80518Z" fill="black"/>
<path d="M35 5.80518C36.1 5.80518 37 6.70518 37 7.80518V25.8052C37 26.9052 36.1 27.8052 35 27.8052H3C1.9 27.8052 1 26.9052 1 25.8052V7.80518C1 6.70518 1.9 5.80518 3 5.80518H35Z" fill="white"/>
<path d="M23.9 13.1052C24.1 12.1052 23.9 11.4052 23.3 10.8052C22.7 10.1052 21.6 9.80518 20.2 9.80518H16.1C15.8 9.80518 15.6 10.0052 15.5 10.3052L14 20.4052C14 20.6052 14.1 20.8052 14.3 20.8052H17L17.4 17.4052L19.2 15.2052L23.9 13.1052Z" fill="#003087"/>
<path d="M23.9001 13.105L23.7001 13.305C23.2001 16.105 21.5001 17.105 19.1001 17.105H18.0001C17.7001 17.105 17.5001 17.305 17.4001 17.605L16.8001 21.505L16.6001 22.505C16.6001 22.705 16.7001 22.905 16.9001 22.905H19.0001C19.3001 22.905 19.5001 22.705 19.5001 22.505V22.405L19.9001 20.005V19.905C19.9001 19.705 20.2001 19.505 20.4001 19.505H20.7001C22.8001 19.505 24.4001 18.705 24.8001 16.305C25.0001 15.305 24.9001 14.505 24.4001 13.905C24.3001 13.405 24.1001 13.205 23.9001 13.105Z" fill="#3086C8"/>
<path d="M23.2999 12.905C23.1999 12.805 23.0999 12.805 22.9999 12.805C22.8999 12.805 22.7999 12.805 22.6999 12.705C22.3999 12.605 21.9999 12.605 21.5999 12.605H18.5999C18.4999 12.605 18.3999 12.605 18.3999 12.705C18.1999 12.805 18.0999 12.905 18.0999 13.105L17.3999 17.505V17.605C17.3999 17.305 17.6999 17.105 17.9999 17.105H19.2999C21.7999 17.105 23.3999 16.105 23.8999 13.305V13.105C23.7999 13.005 23.5999 12.905 23.3999 12.905H23.2999Z" fill="#012169"/>
</svg>
