<svg width="38" height="36" viewBox="0 0 38 36" fill="none" xmlns="http://www.w3.org/2000/svg">
<path d="M34.3872 4.80518H3.61287C3.48468 4.80518 3.35626 4.80518 3.2283 4.80586C3.12026 4.80676 3.01245 4.80789 2.90441 4.81084C2.66909 4.81718 2.43173 4.83122 2.19935 4.8729C1.9663 4.91282 1.74051 4.98725 1.52939 5.09372C1.10499 5.30959 0.760026 5.65455 0.544163 6.07895C0.4375 6.29015 0.363065 6.51612 0.323336 6.74936C0.281209 6.98197 0.267393 7.2191 0.261051 7.4542C0.258291 7.56214 0.25663 7.67011 0.256068 7.77808C0.255615 7.90582 0.255615 8.03402 0.255615 8.16243V25.4477C0.255615 25.5761 0.255615 25.7041 0.256068 25.8325C0.256748 25.9403 0.258107 26.0483 0.261051 26.1564C0.267393 26.391 0.281435 26.6284 0.323336 26.8608C0.362983 27.094 0.437342 27.32 0.543937 27.5312C0.651108 27.7421 0.790999 27.9347 0.958413 28.1019C1.12554 28.2694 1.31819 28.4093 1.52917 28.5164C1.74365 28.6258 1.96335 28.6953 2.19958 28.7377C2.43173 28.7791 2.66909 28.7932 2.90441 28.7995C3.01245 28.802 3.12026 28.8034 3.2283 28.804C3.35626 28.8049 3.48468 28.8049 3.61287 28.8049H34.3872C34.5152 28.8049 34.6436 28.8049 34.7715 28.804C34.8794 28.8036 34.9872 28.802 35.0956 28.7995C35.3305 28.7932 35.5679 28.7791 35.8007 28.7377C36.0338 28.6977 36.2596 28.6231 36.4707 28.5164C36.8949 28.3002 37.2397 27.9554 37.4559 27.5312C37.5653 27.3167 37.6346 27.097 37.6765 26.8608C37.7186 26.6284 37.7322 26.391 37.7386 26.1564C37.7415 26.0483 37.7431 25.9403 37.7435 25.8325C37.7444 25.7041 37.7444 25.5761 37.7444 25.4477V8.16266C37.7444 8.03424 37.7444 7.90605 37.7435 7.77786C37.7431 7.66996 37.7414 7.56206 37.7386 7.4542C37.7322 7.2191 37.7186 6.98197 37.6765 6.74936C37.6371 6.51608 37.5627 6.29008 37.4559 6.07895C37.2399 5.65462 36.895 5.30969 36.4707 5.09372C36.2595 4.98736 36.0337 4.91301 35.8007 4.87312C35.5679 4.83122 35.3305 4.81741 35.0956 4.81106C34.9876 4.80832 34.8796 4.80666 34.7715 4.80608C34.6436 4.80518 34.5152 4.80518 34.3872 4.80518Z" fill="black"/>
<path d="M34.3873 5.60498L34.766 5.60566C34.8683 5.60634 34.9709 5.60747 35.074 5.61019C35.2536 5.61517 35.4633 5.62491 35.659 5.66002C35.8289 5.69059 35.9716 5.73702 36.1084 5.80678C36.3821 5.94597 36.6045 6.16862 36.7434 6.44254C36.8128 6.57843 36.859 6.72022 36.8895 6.89167C36.9244 7.08509 36.9342 7.2955 36.9389 7.47601C36.9419 7.57793 36.9432 7.67985 36.9434 7.78404C36.9446 7.91019 36.9446 8.03612 36.9446 8.1625V25.4478C36.9446 25.5741 36.9446 25.7001 36.9437 25.8287C36.9432 25.9306 36.9418 26.0326 36.9391 26.1345C36.9341 26.3148 36.9244 26.5252 36.8891 26.7209C36.8634 26.8765 36.8141 27.0274 36.743 27.1682C36.6038 27.4422 36.3811 27.6648 36.107 27.8039C35.9711 27.8732 35.8289 27.9197 35.6606 27.95C35.4611 27.9856 35.2423 27.9953 35.0776 27.9998C34.9741 28.0021 34.8711 28.0037 34.7653 28.0042C34.6396 28.0051 34.5132 28.0051 34.3873 28.0051H3.60798C3.48341 28.0051 3.35884 28.0051 3.232 28.0042C3.13007 28.0037 3.02815 28.0024 2.92624 28.0001C2.75774 27.9955 2.53895 27.9856 2.34099 27.9502C2.18448 27.9242 2.03283 27.8745 1.89119 27.803C1.75532 27.734 1.63131 27.6438 1.52382 27.5358C1.41599 27.4281 1.32593 27.3041 1.25701 27.1682C1.18584 27.0266 1.13651 26.875 1.1107 26.7186C1.07537 26.5231 1.0654 26.3136 1.06087 26.1347C1.05831 26.0324 1.0568 25.9301 1.05634 25.8278L1.05566 25.5273V8.08323L1.05612 7.78313C1.05658 7.68067 1.05809 7.57822 1.06065 7.47579C1.06563 7.29641 1.07537 7.0869 1.11093 6.88986C1.13679 6.73377 1.18612 6.5825 1.25724 6.44118C1.32609 6.30574 1.41578 6.18208 1.5245 6.07359C1.63225 5.96567 1.75639 5.87547 1.89232 5.80633C2.03362 5.73534 2.18479 5.68602 2.34077 5.66002C2.53668 5.62491 2.74664 5.61517 2.92647 5.61019C3.02884 5.60747 3.13144 5.60634 3.23314 5.60566L3.61296 5.60498H34.3873Z" fill="white"/>
<path d="M10.1098 12.9069C10.4278 12.5094 10.6434 11.9756 10.5865 11.4302C10.1213 11.4533 9.55376 11.7371 9.22489 12.135C8.92978 12.4757 8.66863 13.0317 8.73658 13.5542C9.25886 13.5995 9.7807 13.2933 10.1098 12.9069Z" fill="black"/>
<path d="M10.5806 13.6564C9.82187 13.6111 9.17727 14.0867 8.81512 14.0867C8.45273 14.0867 7.89806 13.679 7.29809 13.6901C6.51738 13.7014 5.79306 14.1431 5.39671 14.8452C4.58179 16.2494 5.18154 18.3332 5.97425 19.4769C6.35906 20.0431 6.82291 20.666 7.43398 20.6436C8.01153 20.6209 8.23779 20.2699 8.93946 20.2699C9.6409 20.2699 9.84474 20.6436 10.456 20.6322C11.0898 20.6209 11.4861 20.066 11.8709 19.4998C12.3126 18.8543 12.4931 18.2315 12.5044 18.1975C12.4931 18.1862 11.2823 17.7216 11.2709 16.3287C11.2596 15.1623 12.2218 14.6074 12.267 14.5732C11.7237 13.7696 10.8748 13.679 10.5804 13.6564" fill="black"/>
<path d="M18.1422 12.0781C19.7906 12.0781 20.9386 13.2144 20.9386 14.8687C20.9386 16.5289 19.767 17.6711 18.101 17.6711H16.2759V20.5738H14.9573V12.0781H18.1422ZM16.2759 16.5642H17.7889C18.9372 16.5642 19.5904 15.9461 19.5904 14.8746C19.5904 13.8033 18.9369 13.1909 17.7947 13.1909H16.2759V16.5642Z" fill="black"/>
<path d="M21.2657 18.8132C21.2657 17.724 22.0958 17.1 23.6265 17.0058L25.269 16.9057V16.4346C25.269 15.7461 24.8157 15.3692 24.0092 15.3692C23.3438 15.3692 22.8609 15.7105 22.7613 16.2344H21.5717C21.6073 15.1336 22.6433 14.333 24.0446 14.333C25.5516 14.333 26.5348 15.1219 26.5348 16.3465V20.5735H25.3163V19.555H25.2868C24.9394 20.2202 24.1739 20.638 23.3438 20.638C22.1194 20.638 21.2657 19.9083 21.2657 18.8132ZM25.269 18.2658V17.7888L23.8031 17.883C22.9787 17.936 22.5493 18.242 22.5493 18.7776C22.5493 19.2959 22.9966 19.6315 23.6971 19.6315C24.5918 19.6315 25.269 19.0603 25.269 18.2658Z" fill="black"/>
<path d="M27.6552 22.846V21.8277C27.7376 21.8392 27.9376 21.851 28.0436 21.851C28.6263 21.851 28.9561 21.6041 29.1563 20.9679L29.2741 20.5913L27.0427 14.4097H28.4202L29.9746 19.4255H30.0041L31.5583 14.4097H32.9007L30.5868 20.9031C30.0569 22.3928 29.4505 22.8815 28.1672 22.8815C28.0671 22.8815 27.7433 22.8697 27.6552 22.846Z" fill="black"/>
</svg>
