<svg width="38" height="36" viewBox="0 0 38 36" fill="none" xmlns="http://www.w3.org/2000/svg">
<path opacity="0.07" d="M35 4.80518H3C1.3 4.80518 0 6.10518 0 7.80518V25.8052C0 27.5052 1.4 28.8052 3 28.8052H35C36.7 28.8052 38 27.5052 38 25.8052V7.80518C38 6.10518 36.6 4.80518 35 4.80518Z" fill="black"/>
<path d="M35 5.80518C36.1 5.80518 37 6.70518 37 7.80518V25.8052C37 26.9052 36.1 27.8052 35 27.8052H3C1.9 27.8052 1 26.9052 1 25.8052V7.80518C1 6.70518 1.9 5.80518 3 5.80518H35Z" fill="white"/>
<path d="M18.093 16.7814V19.9814H17.075V12.0814H19.766C20.0884 12.0759 20.4087 12.1343 20.7085 12.253C21.0083 12.3718 21.2817 12.5486 21.513 12.7734C21.732 12.9778 21.9086 13.2234 22.0327 13.496C22.1568 13.7687 22.2259 14.0632 22.2361 14.3626C22.2463 14.662 22.1974 14.9605 22.0922 15.241C21.987 15.5215 21.8275 15.7786 21.6229 15.9974L21.513 16.1134C21.043 16.5604 20.415 16.8034 19.766 16.7874L18.093 16.7814ZM18.093 13.0494V15.8374H19.791C20.168 15.8494 20.5319 15.7024 20.7959 15.4334C20.9848 15.2366 21.1116 14.9886 21.1606 14.7202C21.2096 14.4519 21.1786 14.1751 21.0715 13.9242C20.9644 13.6734 20.7859 13.4595 20.5582 13.3093C20.3305 13.1591 20.0637 13.0792 19.791 13.0794L18.093 13.0494ZM24.577 14.3974C25.2269 14.3674 25.863 14.5854 26.3549 15.0104C26.7999 15.4404 27.0369 16.0404 27.0049 16.6594V19.9934H26.0359V19.2274H25.9869C25.8132 19.5147 25.5674 19.7517 25.274 19.915C24.9806 20.0783 24.6497 20.1622 24.3139 20.1584C23.7658 20.1762 23.2314 19.9857 22.818 19.6254C22.6221 19.4656 22.4651 19.2634 22.3589 19.034C22.2527 18.8047 22.2001 18.5541 22.205 18.3014C22.1934 18.046 22.243 17.7915 22.3496 17.5592C22.4563 17.3268 22.6168 17.1232 22.818 16.9654C23.3114 16.6106 23.9086 16.4294 24.516 16.4504C25.033 16.4304 25.546 16.5434 26.006 16.7814V16.5734C26.0093 16.4014 25.9735 16.2309 25.9013 16.0748C25.829 15.9187 25.7222 15.7811 25.589 15.6724C25.3213 15.4291 24.9706 15.2974 24.6089 15.3044C24.3463 15.3019 24.0873 15.3665 23.8565 15.4919C23.6257 15.6174 23.4307 15.7996 23.29 16.0214L22.395 15.4574C22.638 15.1092 22.9661 14.829 23.348 14.6435C23.7299 14.4579 24.153 14.3732 24.577 14.3974ZM23.29 18.3254C23.2875 18.4549 23.317 18.583 23.3758 18.6985C23.4346 18.8139 23.5208 18.9131 23.627 18.9874C23.85 19.1634 24.127 19.2564 24.412 19.2504C24.841 19.2494 25.252 19.0804 25.558 18.7784C25.863 18.4924 26.0359 18.0934 26.0359 17.6754C25.651 17.4017 25.1832 17.2696 24.712 17.3014C24.346 17.287 23.9851 17.39 23.6819 17.5954C23.5619 17.6757 23.4634 17.7843 23.395 17.9116C23.3267 18.0388 23.2906 18.1809 23.29 18.3254ZM32.576 14.5754L29.186 22.3654H28.138L29.419 19.6374L27.195 14.5754H28.298L29.91 18.4604L31.479 14.5754H32.576Z" fill="#5F6368"/>
<path d="M13.986 16.0889C13.986 15.7809 13.962 15.4729 13.913 15.1689H9.62305V16.9159H12.074C12.0241 17.1936 11.9187 17.4583 11.7641 17.6942C11.6094 17.9301 11.4087 18.1324 11.174 18.2889V19.4229H12.638C13.0832 18.9922 13.4331 18.473 13.6653 17.8988C13.8975 17.3245 14.0067 16.708 13.986 16.0889Z" fill="#4285F4"/>
<path d="M9.62915 20.5261C10.7355 20.5565 11.8118 20.1642 12.6391 19.4291L11.1731 18.2891C10.8209 18.515 10.4218 18.6575 10.0062 18.7059C9.59055 18.7543 9.16936 18.7073 8.77463 18.5685C8.3799 18.4297 8.02204 18.2026 7.72824 17.9047C7.43444 17.6068 7.21245 17.2458 7.07915 16.8491H5.57715V18.0191C5.953 18.7722 6.5312 19.4056 7.2469 19.8484C7.96261 20.2912 8.78753 20.5259 9.62915 20.5261Z" fill="#34A853"/>
<path d="M7.07893 16.8552C6.88872 16.2925 6.88872 15.6829 7.07893 15.1202V13.9502H5.57693C5.25672 14.5817 5.08984 15.2797 5.08984 15.9877C5.08984 16.6957 5.25672 17.3937 5.57693 18.0252L7.07893 16.8552Z" fill="#FBBC04"/>
<path d="M9.62915 13.2454C10.2762 13.2335 10.9016 13.478 11.3691 13.9254L12.6691 12.6324C11.8402 11.8544 10.7408 11.43 9.60415 11.4494C8.76752 11.4536 7.94839 11.6894 7.23758 12.1306C6.52677 12.5719 5.95206 13.2014 5.57715 13.9494L7.07915 15.1204C7.25477 14.5804 7.59524 14.1092 8.05266 13.7728C8.51007 13.4365 9.06142 13.252 9.62915 13.2454Z" fill="#EA4335"/>
</svg>
