<svg width="38" height="36" viewBox="0 0 38 36" fill="none" xmlns="http://www.w3.org/2000/svg">
<path opacity="0.07" d="M35 4.80518H3C1.3 4.80518 0 6.10518 0 7.80518V25.8052C0 27.5052 1.4 28.8052 3 28.8052H35C36.7 28.8052 38 27.5052 38 25.8052V7.80518C38 6.10518 36.6 4.80518 35 4.80518Z" fill="black"/>
<path d="M35 5.80518C36.1 5.80518 37 6.70518 37 7.80518V25.8052C37 26.9052 36.1 27.8052 35 27.8052H3C1.9 27.8052 1 26.9052 1 25.8052V7.80518C1 6.70518 1.9 5.80518 3 5.80518H35Z" fill="white"/>
<path d="M15 23.8052C18.866 23.8052 22 20.6712 22 16.8052C22 12.9392 18.866 9.80518 15 9.80518C11.134 9.80518 8 12.9392 8 16.8052C8 20.6712 11.134 23.8052 15 23.8052Z" fill="#EB001B"/>
<path d="M23 23.8052C26.866 23.8052 30 20.6712 30 16.8052C30 12.9392 26.866 9.80518 23 9.80518C19.134 9.80518 16 12.9392 16 16.8052C16 20.6712 19.134 23.8052 23 23.8052Z" fill="#F79E1B"/>
<path d="M22 16.805C22 14.405 20.8 12.305 19 11.105C17.2 12.405 16 14.505 16 16.805C16 19.105 17.2 21.305 19 22.505C20.8 21.305 22 19.205 22 16.805Z" fill="#FF5F00"/>
</svg>
