<svg width="38" height="36" viewBox="0 0 38 36" fill="none" xmlns="http://www.w3.org/2000/svg">
<path d="M17.7 4.80518V28.8052H10.5C9.2 28.8052 8.4 27.8052 8.7 26.5052L13.1 7.10518C13.4 5.80518 15 4.80518 16.3 4.80518H17.7ZM30.3 4.80518C29 4.80518 27.4 5.80518 27.1 7.10518L22.6 26.5052C22.3 27.8052 23.1 28.8052 24.4 28.8052H19.5V4.80518H30.3Z" fill="#005B9A"/>
<path d="M16.3001 4.80518C15.0001 4.80518 13.4001 5.90517 13.1001 7.10518L8.7001 26.5052C8.4001 27.8052 9.2001 28.8052 10.5001 28.8052H1.6001C0.800098 28.8052 0.100098 28.2052 0.100098 27.4052V6.40518C0.100098 5.60518 0.800098 4.80518 1.6001 4.80518H16.3001Z" fill="#E9292D"/>
<path d="M30.2999 4.80518C28.9999 4.80518 27.3999 5.90517 27.0999 7.10518L22.6999 26.5052C22.3999 27.8052 23.1999 28.8052 24.4999 28.8052H9.99994H10.4999C9.19994 28.8052 8.39994 27.8052 8.69994 26.5052L13.0999 7.10518C13.3999 5.80518 14.9999 4.80518 16.2999 4.80518H30.2999Z" fill="#0E73B9"/>
<path d="M38.0001 6.40518V27.4052C38.0001 28.2052 37.4001 28.8052 36.5001 28.8052H24.4001C23.1001 28.8052 22.3001 27.7052 22.6001 26.5052L27.1001 7.10518C27.4001 5.80518 29.0001 4.80518 30.3001 4.80518H36.5001C37.4001 4.80518 38.0001 5.50518 38.0001 6.40518Z" fill="#059DA4"/>
<path d="M14.8779 18.4501H15.0179C15.1579 18.4501 15.2979 18.3801 15.2979 18.3101L15.7179 17.6801H16.9079L16.6979 18.0301H18.0979L17.8879 18.6601H16.2079C15.9979 18.9401 15.7879 19.0801 15.5079 19.0801H14.6679L14.8779 18.4501ZM14.6679 19.3601H17.6779L17.4679 20.0601H16.2779L16.0679 20.7601H17.2579L17.0479 21.4601H15.8579L15.5779 22.5101C15.5079 22.6501 15.5779 22.7901 15.8579 22.7201H16.8379L16.6279 23.4201H14.7379C14.3879 23.4201 14.2479 23.2101 14.3879 22.7901L14.7379 21.4601H13.9679L14.1779 20.7601H14.9479L15.1579 20.0601H14.4579L14.6679 19.3601ZM19.4979 17.6101V18.0301C19.4979 18.0301 20.0579 17.6101 20.6179 17.6101H22.5779L21.8079 20.2701C21.7379 20.5501 21.4579 20.7601 21.0379 20.7601H18.7979L18.3079 22.6501C18.3079 22.7201 18.3079 22.7901 18.4479 22.7901H18.8679L18.7279 23.3501H17.6079C17.1879 23.3501 17.0479 23.2101 17.1179 23.0001L18.5879 17.6101H19.4979ZM21.1779 18.3801H19.4279L19.2179 19.0801C19.2179 19.0801 19.4979 18.8701 19.9879 18.8701H21.0379L21.1779 18.3801ZM20.5479 20.0601C20.6879 20.0601 20.7579 20.0601 20.7579 19.9201L20.8979 19.5701H19.1479L19.0079 20.1301L20.5479 20.0601ZM19.3579 20.9001H20.3379V21.3201H20.6179C20.7579 21.3201 20.8279 21.2501 20.8279 21.1801L20.8979 20.9001H21.7379L21.5979 21.3901C21.5279 21.7401 21.2479 21.8801 20.8279 21.9501H20.2679V22.7201C20.2679 22.8601 20.3379 22.9301 20.6179 22.9301H21.1079L20.9679 23.4901H19.7779C19.4279 23.4901 19.2879 23.3501 19.2879 23.0001L19.3579 20.9001ZM23.5579 18.4501L23.7679 17.6101H24.9579L24.8879 17.8901C24.8879 17.8901 25.4479 17.6101 25.9379 17.6101H27.4079L27.1979 18.4501H26.9879L25.8679 22.3001H26.0779L25.8679 23.0701H25.6579L25.5879 23.4201H24.3979L24.4679 23.0701H22.2979L22.5079 22.3001H22.7179L23.8379 18.4501H23.5579ZM24.8179 18.4501L24.5379 19.5001C24.5379 19.5001 25.0279 19.2901 25.4479 19.2201C25.5179 18.8701 25.6579 18.4501 25.6579 18.4501H24.8179ZM24.3279 19.9901L24.0479 21.1101C24.0479 21.1101 24.6079 20.8301 25.0279 20.8301C25.1679 20.4101 25.2379 20.0601 25.2379 20.0601L24.3279 19.9901ZM24.5379 22.3001L24.7479 21.5301H23.9079L23.6979 22.3001H24.5379ZM27.4079 17.6101H28.5279L28.5979 18.0301C28.5979 18.1001 28.6679 18.1701 28.8079 18.1701H29.0179L28.8079 18.8701H28.0379C27.7579 18.8701 27.5479 18.8001 27.5479 18.5201L27.4079 17.6101ZM27.0579 19.0801H30.6279L30.4179 19.8501H29.2279L29.0179 20.5501H30.1379L29.9279 21.3201H28.6679L28.3879 21.7401H29.0179L29.1579 22.5801C29.1579 22.6501 29.2279 22.7201 29.3679 22.7201H29.5779L29.3679 23.4201H28.6679C28.3179 23.4201 28.1079 23.3501 28.1079 23.0701L27.9679 22.3001L27.4079 23.1401C27.2679 23.3501 27.0579 23.4901 26.7779 23.4901H25.7279L25.9379 22.7901H26.2879C26.4279 22.7901 26.4979 22.7201 26.6379 22.5801L27.4779 21.3201H26.4279L26.6379 20.5501H27.8279L28.0379 19.8501H26.8479L27.0579 19.0801ZM7.31793 14.0401C7.17793 14.7401 6.89793 15.2301 6.40793 15.5801C5.91793 15.9301 5.28793 16.1401 4.51793 16.1401C3.81793 16.1401 3.25793 15.9301 2.97793 15.5801C2.76793 15.3001 2.62793 15.0201 2.62793 14.6001C2.62793 14.4601 2.62793 14.2501 2.69793 14.0401L3.53793 10.1201H4.72793L3.95793 14.0401V14.3201C3.95793 14.5301 4.02793 14.6701 4.09793 14.8101C4.23793 15.0201 4.44793 15.0901 4.79793 15.0901C5.14793 15.0901 5.49793 15.0201 5.70793 14.8101C5.91793 14.6001 6.12793 14.3901 6.19793 14.0401L6.96793 10.1201H8.15793L7.31793 14.0401ZM8.43793 12.5001H9.27793L9.20793 12.9901L9.34793 12.8501C9.62793 12.5701 9.97793 12.4301 10.3979 12.4301C10.7479 12.4301 11.0279 12.5701 11.1679 12.7801C11.3079 12.9901 11.3779 13.2701 11.3079 13.6901L10.8179 16.0701H9.90793L10.3279 13.9001C10.3979 13.6201 10.3979 13.4101 10.3279 13.3401C10.2579 13.2001 10.1179 13.2001 9.97793 13.2001C9.76793 13.2001 9.55793 13.2701 9.41793 13.4101C9.27793 13.5501 9.13793 13.7601 9.13793 14.0401L8.71793 16.0701H7.80793L8.43793 12.5001ZM18.2379 12.5001H19.0779L19.0079 12.9901L19.1479 12.8501C19.4279 12.5701 19.7779 12.4301 20.1979 12.4301C20.5479 12.4301 20.8279 12.5701 20.9679 12.7801C21.1079 12.9901 21.1779 13.2701 21.1079 13.6901L20.6179 16.0701H19.7079L20.1279 13.8301C20.1979 13.6201 20.1279 13.4101 20.0579 13.3401C19.9879 13.2001 19.8479 13.2001 19.7079 13.2001C19.4979 13.2001 19.2879 13.2701 19.1479 13.4101C19.0079 13.5501 18.8679 13.7601 18.8679 14.0401L18.4479 16.0701H17.5379L18.2379 12.5001ZM12.4279 12.5001H13.4079L12.6379 16.0001H11.6579L12.4279 12.5001ZM12.7779 11.1701H13.7579L13.5479 12.0101H12.5679L12.7779 11.1701ZM14.1779 15.7201C13.9679 15.5101 13.8279 15.1601 13.8279 14.7401V14.5301C13.8279 14.4601 13.8279 14.3201 13.8979 14.2501C14.0379 13.6901 14.2479 13.2001 14.5979 12.9201C14.9479 12.5701 15.4379 12.4301 15.9279 12.4301C16.3479 12.4301 16.6979 12.5701 16.9779 12.7801C17.1879 12.9901 17.3279 13.3401 17.3279 13.7601V13.9701C17.3279 14.0401 17.3279 14.1801 17.2579 14.2501C17.1179 14.8101 16.9079 15.2301 16.5579 15.5801C16.2079 15.9301 15.7179 16.0701 15.2279 16.0701C14.8779 16.0701 14.5279 15.9301 14.1779 15.7201ZM16.0679 15.0201C16.2079 14.8101 16.3479 14.5301 16.4179 14.1801V13.8301C16.4179 13.6201 16.3479 13.4801 16.2779 13.3401C16.2164 13.2717 16.1406 13.2175 16.056 13.1812C15.9714 13.1449 15.8799 13.1275 15.7879 13.1301C15.5079 13.1301 15.2979 13.2001 15.1579 13.4101C15.0179 13.6201 14.8779 13.9001 14.8079 14.2501V14.5301C14.8079 14.7401 14.8779 14.8801 14.9479 15.0201C15.0879 15.1601 15.2279 15.2301 15.4379 15.2301C15.7179 15.3001 15.8579 15.2301 16.0679 15.0201ZM22.5779 10.3301H25.0979C25.5879 10.3301 25.9379 10.4701 26.2179 10.6801C26.4979 10.8901 26.5679 11.2401 26.5679 11.5901V11.8701C26.5679 11.9401 26.5679 12.0801 26.4979 12.1501C26.4279 12.6401 26.1479 13.1301 25.7979 13.4101C25.3779 13.7601 24.9579 13.9001 24.3979 13.9001H22.9979L22.5779 15.9301H21.3879L22.5779 10.3301ZM23.1379 12.9201H24.2579C24.5379 12.9201 24.7479 12.8501 24.9579 12.7101C25.0979 12.5701 25.2379 12.3601 25.3079 12.0801V11.8001C25.3079 11.5901 25.2379 11.4501 25.0979 11.3801C24.9579 11.3101 24.7479 11.2401 24.3979 11.2401H23.4879L23.1379 12.9201ZM31.8179 16.6301C31.4679 17.4001 31.1179 17.8901 30.9079 18.1001C30.6979 18.3101 30.2779 18.8001 29.2979 18.8001L29.3679 18.1701C30.2079 17.8901 30.6279 16.7701 30.9079 16.2101L30.6279 12.4301H31.8179L31.8879 14.8101L32.7979 12.5001H33.8479L31.8179 16.6301ZM28.8779 12.7801L28.4579 13.0601C28.0379 12.7101 27.6179 12.5001 26.9179 12.8501C25.9379 13.3401 25.0279 16.9801 27.8279 15.7901L27.9679 16.0001H29.0879L29.7879 12.7101L28.8779 12.7801ZM28.3179 14.6001C28.1079 15.1601 27.7579 15.4401 27.4079 15.3701C27.1279 15.2301 27.0579 14.7401 27.1979 14.1801C27.4079 13.6201 27.7579 13.3401 28.1079 13.4101C28.3879 13.5501 28.4579 14.0401 28.3179 14.6001Z" fill="white"/>
</svg>
