<svg width="38" height="36" viewBox="0 0 38 36" fill="none" xmlns="http://www.w3.org/2000/svg">
<path opacity="0.07" d="M35 4.80518H3C1.3 4.80518 0 6.10518 0 7.80518V25.8052C0 27.5052 1.4 28.8052 3 28.8052H35C36.7 28.8052 38 27.5052 38 25.8052V7.80518C38 6.10518 36.6 4.80518 35 4.80518Z" fill="black"/>
<path d="M35 5.80518C36.1 5.80518 37 6.70518 37 7.80518V25.8052C37 26.9052 36.1 27.8052 35 27.8052H3C1.9 27.8052 1 26.9052 1 25.8052V7.80518C1 6.70518 1.9 5.80518 3 5.80518H35Z" fill="#006FCF"/>
<path d="M22.012 24.7413V16.3203L37 16.3333V18.6593L35.268 20.5113L37 22.3783V24.7533H34.234L32.764 23.1313L31.304 24.7593L22.012 24.7393V24.7413Z" fill="white"/>
<path d="M23.0129 23.8171V17.2471H28.5849V18.7601H24.8169V19.7881H28.4949V21.2761H24.8169V22.2861H28.5849V23.8171H23.0129Z" fill="#006FCF"/>
<path d="M28.5571 23.8171L31.6401 20.5281L28.5571 17.2461H30.9431L32.8271 19.3291L34.7171 17.2471H37.0001V17.2981L33.9831 20.5281L37.0001 23.7251V23.8181H34.6931L32.7761 21.7151L30.8781 23.8191H28.5571V23.8171Z" fill="#006FCF"/>
<path d="M22.71 8.84521H26.324L27.593 11.7262V8.84521H32.053L32.823 11.0042L33.594 8.84521H37V17.2662H19L22.71 8.84521Z" fill="white"/>
<path d="M23.395 9.76025L20.479 16.3263H22.479L23.029 15.0113H26.009L26.559 16.3263H28.609L25.705 9.76025H23.395ZM23.645 13.5373L24.52 11.4473L25.393 13.5373H23.645Z" fill="#006FCF"/>
<path d="M28.5811 16.3253V9.7583L31.3921 9.7683L32.8401 13.8053L34.2961 9.7593H37.0001V16.3243L35.2601 16.3403V11.8303L33.6161 16.3243H32.0261L30.3501 11.8153V16.3253H28.5821H28.5811Z" fill="#006FCF"/>
</svg>
