<svg width="24" height="18" viewBox="0 0 24 18" fill="none" xmlns="http://www.w3.org/2000/svg">
<path d="M23.5057 3.22746C23.2289 2.19946 22.4184 1.38892 21.3904 1.11215C19.5123 0.598145 11.9999 0.598145 11.9999 0.598145C11.9999 0.598145 4.48762 0.598145 2.60954 1.09238C1.60131 1.36915 0.771002 2.19946 0.494232 3.22746C0 5.10554 0 9.00008 0 9.00008C0 9.00008 0 12.9144 0.494232 14.7727C0.771002 15.8007 1.58154 16.6113 2.60954 16.888C4.50739 17.402 11.9999 17.402 11.9999 17.402C11.9999 17.402 19.5123 17.402 21.3904 16.9078C22.4184 16.631 23.2289 15.8205 23.5057 14.7925C23.9999 12.9144 23.9999 9.01985 23.9999 9.01985C23.9999 9.01985 24.0197 5.10554 23.5057 3.22746Z" fill="#FF0000"/>
<path d="M9.60791 12.5981L15.855 9.00011L9.60791 5.4021V12.5981Z" fill="white"/>
</svg>
